<mxfile host="app.diagrams.net" modified="2022-01-05T11:38:17.242Z" agent="5.0 (Windows NT 10.0; Win64; x64) AppleWebKit/537.36 (KHTML, like Gecko) Chrome/96.0.4664.110 Safari/537.36" etag="fWnlnM3j6SKC9oIj4inc" version="16.2.1" type="github">
  <diagram id="C5RBs43oDa-KdzZeNtuy" name="Page-1">
    <mxGraphModel dx="1354" dy="1068" grid="1" gridSize="10" guides="1" tooltips="1" connect="1" arrows="1" fold="1" page="1" pageScale="1" pageWidth="827" pageHeight="1169" math="0" shadow="0">
      <root>
        <mxCell id="WIyWlLk6GJQsqaUBKTNV-0" />
        <mxCell id="WIyWlLk6GJQsqaUBKTNV-1" parent="WIyWlLk6GJQsqaUBKTNV-0" />
        <mxCell id="f5wqm6YAVryBw6JpzlOn-1" style="edgeStyle=orthogonalEdgeStyle;rounded=0;orthogonalLoop=1;jettySize=auto;html=1;exitX=0;exitY=0.25;exitDx=0;exitDy=0;entryX=1;entryY=0.25;entryDx=0;entryDy=0;strokeWidth=2;" edge="1" parent="WIyWlLk6GJQsqaUBKTNV-1" source="WIyWlLk6GJQsqaUBKTNV-3" target="CI9n8jhhGB8RwnVAwCXR-0">
          <mxGeometry relative="1" as="geometry" />
        </mxCell>
        <mxCell id="f5wqm6YAVryBw6JpzlOn-2" value="100K &lt;br&gt;Team Allocation" style="edgeLabel;html=1;align=center;verticalAlign=middle;resizable=0;points=[];labelBackgroundColor=none;" vertex="1" connectable="0" parent="f5wqm6YAVryBw6JpzlOn-1">
          <mxGeometry x="0.1048" y="-2" relative="1" as="geometry">
            <mxPoint x="6" y="1" as="offset" />
          </mxGeometry>
        </mxCell>
        <mxCell id="WIyWlLk6GJQsqaUBKTNV-3" value="GRPH VAULT" style="rounded=1;whiteSpace=wrap;html=1;fontSize=12;glass=0;strokeWidth=1;shadow=0;verticalAlign=bottom;" parent="WIyWlLk6GJQsqaUBKTNV-1" vertex="1">
          <mxGeometry x="470" y="100" width="120" height="90" as="geometry" />
        </mxCell>
        <mxCell id="CI9n8jhhGB8RwnVAwCXR-2" style="edgeStyle=orthogonalEdgeStyle;rounded=0;orthogonalLoop=1;jettySize=auto;html=1;exitX=1;exitY=0.5;exitDx=0;exitDy=0;endArrow=classic;endFill=1;endSize=8;entryX=0.5;entryY=0;entryDx=0;entryDy=0;strokeWidth=2;" parent="WIyWlLk6GJQsqaUBKTNV-1" source="CI9n8jhhGB8RwnVAwCXR-0" target="CI9n8jhhGB8RwnVAwCXR-3" edge="1">
          <mxGeometry relative="1" as="geometry">
            <mxPoint x="360" y="250" as="targetPoint" />
          </mxGeometry>
        </mxCell>
        <mxCell id="CI9n8jhhGB8RwnVAwCXR-0" value="ZIL / GRPH&lt;br&gt;from Team" style="rounded=1;whiteSpace=wrap;html=1;fontSize=12;glass=0;strokeWidth=1;shadow=0;verticalAlign=bottom;" parent="WIyWlLk6GJQsqaUBKTNV-1" vertex="1">
          <mxGeometry x="140" y="100" width="120" height="90" as="geometry" />
        </mxCell>
        <mxCell id="CI9n8jhhGB8RwnVAwCXR-10" style="edgeStyle=orthogonalEdgeStyle;rounded=0;orthogonalLoop=1;jettySize=auto;html=1;exitX=0.5;exitY=1;exitDx=0;exitDy=0;entryX=0.5;entryY=0;entryDx=0;entryDy=0;endArrow=classic;endFill=1;endSize=8;strokeWidth=2;" parent="WIyWlLk6GJQsqaUBKTNV-1" source="CI9n8jhhGB8RwnVAwCXR-3" target="CI9n8jhhGB8RwnVAwCXR-9" edge="1">
          <mxGeometry relative="1" as="geometry" />
        </mxCell>
        <mxCell id="CI9n8jhhGB8RwnVAwCXR-3" value="ZilSwap Pool&lt;br&gt;(50K GRPH)&lt;br&gt;($1 per GRPH)" style="shape=process;whiteSpace=wrap;html=1;backgroundOutline=1;" parent="WIyWlLk6GJQsqaUBKTNV-1" vertex="1">
          <mxGeometry x="280" y="220" width="160" height="60" as="geometry" />
        </mxCell>
        <mxCell id="CI9n8jhhGB8RwnVAwCXR-5" value="" style="shape=image;verticalLabelPosition=bottom;labelBackgroundColor=#ffffff;verticalAlign=top;aspect=fixed;imageAspect=0;image=data:image/svg+xml,PHN2ZyB4bWxucz0iaHR0cDovL3d3dy53My5vcmcvMjAwMC9zdmciIGlkPSJMYXllcl8xIiB2aWV3Qm94PSItMC4wMDcwMDM3ODQxNzk2ODc1IDAgMzA4LjEwMTk4OTc0NjA5Mzc1IDQzNi4wNTU5OTk3NTU4NTk0IiB3aWR0aD0iMjAwLjAwMTI5MTYyMzU1OTciIGhlaWdodD0iMTk5Ljk3OTgyMTAyOTk3NDQ2Ij48c3R5bGU+LnN0MHtmaWxsOiM0OWMxYmZ9LnN0MXtmaWxsOiMwNzdhOGZ9LnN0MntmaWxsOiMyOThlOTd9PC9zdHlsZT48ZyB0cmFuc2Zvcm09InRyYW5zbGF0ZSgxOTAuNjkzIC0xMDkpIj48cGF0aCBpZD0icGF0aDBfZmlsbCIgY2xhc3M9InN0MCIgZD0iTTExNy40IDI4OS4ybC02Mi44IDI4TC0xMTIgNDAybDE2Ni42IDgwLjFWMzQ5LjdsNjIuOC0yOC4zVjUxN2wtNjIuOCAyOC0yNDUuMy0xMTcuNHYtNjIuNGwxNjkuOC04My4zLTE2OS44LTgxLjZWMTM3bDYzLjgtMjggMjQ0LjMgMTE3LjZ2NjIuNnoiLz48L2c+PGcgdHJhbnNmb3JtPSJ0cmFuc2xhdGUoMTkwLjY5MyAtMTA5KSI+PHBhdGggaWQ9InBhdGgxX2ZpbGwiIGNsYXNzPSJzdDEiIGQ9Ik0tMTkwLjcgMTM3TDU0LjYgMjU0LjZsNjIuOC0yOEwtMTI2LjkgMTA5bC02My44IDI4eiIvPjwvZz48ZyB0cmFuc2Zvcm09InRyYW5zbGF0ZSgyMDguNjk1IC0xMDAuMzY1KSI+PHBhdGggaWQ9InBhdGgyX2ZpbGwiIGNsYXNzPSJzdDIiIGQ9Ik0zNi42IDI0NS43bDYyLjgtMjh2NjIuNmwtNjIuOCAyOHYtNjIuNnoiLz48L2c+PGcgdHJhbnNmb3JtPSJ0cmFuc2xhdGUoMTkwLjY5MyAtMTA2Ljk0NCkiPjxwYXRoIGlkPSJwYXRoM19maWxsIiBjbGFzcz0ic3QwIiBkPSJNLTE5MC43IDEzNXY2My4zbDE2OS44IDgxLjYtMTY5LjggODMuM3Y2Mi40TDU0LjYgNTQzdi02Mi44TC0xMTIgNDAwbDE2Ni42LTg0Ljh2LTYyLjZMLTE5MC43IDEzNXoiLz48L2c+PGcgdHJhbnNmb3JtPSJ0cmFuc2xhdGUoMjA4LjY5NSAtOTMuNDExKSI+PHBhdGggaWQ9InBhdGg0X2ZpbGwiIGNsYXNzPSJzdDIiIGQ9Ik0zNi42IDUyOWw2Mi44LTI4VjMwNS40bC02Mi44IDI4LjNWNTI5eiIvPjwvZz48L3N2Zz4=;" parent="WIyWlLk6GJQsqaUBKTNV-1" vertex="1">
          <mxGeometry x="160" y="110" width="38" height="38" as="geometry" />
        </mxCell>
        <mxCell id="CI9n8jhhGB8RwnVAwCXR-16" style="edgeStyle=orthogonalEdgeStyle;rounded=0;orthogonalLoop=1;jettySize=auto;html=1;exitX=0.5;exitY=1;exitDx=0;exitDy=0;entryX=0.5;entryY=0;entryDx=0;entryDy=0;endArrow=classic;endFill=1;endSize=8;strokeWidth=2;" parent="WIyWlLk6GJQsqaUBKTNV-1" source="CI9n8jhhGB8RwnVAwCXR-9" target="CI9n8jhhGB8RwnVAwCXR-15" edge="1">
          <mxGeometry relative="1" as="geometry" />
        </mxCell>
        <mxCell id="CI9n8jhhGB8RwnVAwCXR-9" value="Launch&lt;br&gt;CarbSwap" style="rhombus;whiteSpace=wrap;html=1;verticalAlign=middle;" parent="WIyWlLk6GJQsqaUBKTNV-1" vertex="1">
          <mxGeometry x="315" y="320" width="90" height="90" as="geometry" />
        </mxCell>
        <mxCell id="CI9n8jhhGB8RwnVAwCXR-25" style="edgeStyle=orthogonalEdgeStyle;rounded=0;orthogonalLoop=1;jettySize=auto;html=1;exitX=0.5;exitY=1;exitDx=0;exitDy=0;entryX=1;entryY=0.5;entryDx=0;entryDy=0;endArrow=classic;endFill=1;endSize=8;strokeWidth=2;" parent="WIyWlLk6GJQsqaUBKTNV-1" source="CI9n8jhhGB8RwnVAwCXR-15" target="CI9n8jhhGB8RwnVAwCXR-23" edge="1">
          <mxGeometry relative="1" as="geometry">
            <Array as="points">
              <mxPoint x="360" y="620" />
              <mxPoint x="300" y="620" />
              <mxPoint x="300" y="570" />
            </Array>
          </mxGeometry>
        </mxCell>
        <mxCell id="CI9n8jhhGB8RwnVAwCXR-31" style="edgeStyle=orthogonalEdgeStyle;rounded=0;orthogonalLoop=1;jettySize=auto;html=1;exitX=0.5;exitY=1;exitDx=0;exitDy=0;entryX=1;entryY=0.5;entryDx=0;entryDy=0;endArrow=classic;endFill=1;endSize=8;strokeWidth=2;" parent="WIyWlLk6GJQsqaUBKTNV-1" source="CI9n8jhhGB8RwnVAwCXR-15" target="CI9n8jhhGB8RwnVAwCXR-30" edge="1">
          <mxGeometry relative="1" as="geometry">
            <Array as="points">
              <mxPoint x="360" y="700" />
              <mxPoint x="300" y="700" />
              <mxPoint x="300" y="745" />
            </Array>
          </mxGeometry>
        </mxCell>
        <mxCell id="f5wqm6YAVryBw6JpzlOn-13" style="edgeStyle=orthogonalEdgeStyle;rounded=0;orthogonalLoop=1;jettySize=auto;html=1;exitX=0.5;exitY=1;exitDx=0;exitDy=0;entryX=1;entryY=0.5;entryDx=0;entryDy=0;endArrow=classic;endFill=1;strokeColor=default;strokeWidth=2;" edge="1" parent="WIyWlLk6GJQsqaUBKTNV-1" source="CI9n8jhhGB8RwnVAwCXR-15" target="f5wqm6YAVryBw6JpzlOn-12">
          <mxGeometry relative="1" as="geometry">
            <Array as="points">
              <mxPoint x="360" y="656" />
            </Array>
          </mxGeometry>
        </mxCell>
        <mxCell id="CI9n8jhhGB8RwnVAwCXR-15" value="Remove half the liquidity&lt;br&gt;from ZilSwap" style="rounded=1;whiteSpace=wrap;html=1;verticalAlign=middle;fillColor=#f5f5f5;fontColor=#333333;strokeColor=#666666;" parent="WIyWlLk6GJQsqaUBKTNV-1" vertex="1">
          <mxGeometry x="290" y="440" width="140" height="90" as="geometry" />
        </mxCell>
        <mxCell id="CI9n8jhhGB8RwnVAwCXR-29" style="edgeStyle=orthogonalEdgeStyle;rounded=0;orthogonalLoop=1;jettySize=auto;html=1;exitX=0.5;exitY=0;exitDx=0;exitDy=0;endArrow=classic;endFill=1;endSize=8;strokeWidth=2;dashed=1;entryX=0.5;entryY=1;entryDx=0;entryDy=0;" parent="WIyWlLk6GJQsqaUBKTNV-1" source="CI9n8jhhGB8RwnVAwCXR-23" target="CI9n8jhhGB8RwnVAwCXR-0" edge="1">
          <mxGeometry relative="1" as="geometry">
            <Array as="points">
              <mxPoint x="200" y="200" />
              <mxPoint x="200" y="200" />
            </Array>
            <mxPoint x="150" y="310" as="targetPoint" />
          </mxGeometry>
        </mxCell>
        <mxCell id="CI9n8jhhGB8RwnVAwCXR-23" value="Balance returned&lt;br&gt;to Team" style="rounded=1;whiteSpace=wrap;html=1;verticalAlign=middle;" parent="WIyWlLk6GJQsqaUBKTNV-1" vertex="1">
          <mxGeometry x="140" y="540" width="120" height="60" as="geometry" />
        </mxCell>
        <mxCell id="CI9n8jhhGB8RwnVAwCXR-47" style="edgeStyle=orthogonalEdgeStyle;rounded=0;orthogonalLoop=1;jettySize=auto;html=1;exitX=0.5;exitY=1;exitDx=0;exitDy=0;entryX=0;entryY=0.25;entryDx=0;entryDy=0;endArrow=classic;endFill=1;endSize=8;strokeWidth=2;" parent="WIyWlLk6GJQsqaUBKTNV-1" source="CI9n8jhhGB8RwnVAwCXR-30" target="CI9n8jhhGB8RwnVAwCXR-34" edge="1">
          <mxGeometry relative="1" as="geometry" />
        </mxCell>
        <mxCell id="CI9n8jhhGB8RwnVAwCXR-30" value="250K ZIL" style="rounded=1;whiteSpace=wrap;html=1;verticalAlign=middle;" parent="WIyWlLk6GJQsqaUBKTNV-1" vertex="1">
          <mxGeometry x="140" y="715" width="120" height="60" as="geometry" />
        </mxCell>
        <mxCell id="CI9n8jhhGB8RwnVAwCXR-34" value="ZIL / CARB&lt;br&gt;(250K ZIL)" style="shape=process;whiteSpace=wrap;html=1;backgroundOutline=1;" parent="WIyWlLk6GJQsqaUBKTNV-1" vertex="1">
          <mxGeometry x="280" y="830" width="160" height="40" as="geometry" />
        </mxCell>
        <mxCell id="CI9n8jhhGB8RwnVAwCXR-37" value="ZUSDT / CARB&lt;br&gt;(10K ZUSDT)" style="shape=process;whiteSpace=wrap;html=1;backgroundOutline=1;" parent="WIyWlLk6GJQsqaUBKTNV-1" vertex="1">
          <mxGeometry x="280" y="880" width="160" height="40" as="geometry" />
        </mxCell>
        <mxCell id="CI9n8jhhGB8RwnVAwCXR-38" value="GRPH / CARB&lt;br&gt;(50K GRAPH)" style="shape=process;whiteSpace=wrap;html=1;backgroundOutline=1;" parent="WIyWlLk6GJQsqaUBKTNV-1" vertex="1">
          <mxGeometry x="280" y="930" width="160" height="40" as="geometry" />
        </mxCell>
        <mxCell id="CI9n8jhhGB8RwnVAwCXR-46" value="Launch Pools" style="text;html=1;strokeColor=none;fillColor=none;align=center;verticalAlign=middle;whiteSpace=wrap;rounded=0;" parent="WIyWlLk6GJQsqaUBKTNV-1" vertex="1">
          <mxGeometry x="315" y="800" width="90" height="30" as="geometry" />
        </mxCell>
        <mxCell id="aoZYSE3xc6NWGzjAAOQG-5" style="edgeStyle=orthogonalEdgeStyle;rounded=0;orthogonalLoop=1;jettySize=auto;html=1;exitX=1;exitY=0.25;exitDx=0;exitDy=0;entryX=0;entryY=0.75;entryDx=0;entryDy=0;strokeWidth=2;" parent="WIyWlLk6GJQsqaUBKTNV-1" source="CI9n8jhhGB8RwnVAwCXR-51" target="CI9n8jhhGB8RwnVAwCXR-34" edge="1">
          <mxGeometry relative="1" as="geometry">
            <Array as="points" />
          </mxGeometry>
        </mxCell>
        <mxCell id="aoZYSE3xc6NWGzjAAOQG-6" style="edgeStyle=orthogonalEdgeStyle;rounded=0;orthogonalLoop=1;jettySize=auto;html=1;exitX=1;exitY=0.5;exitDx=0;exitDy=0;entryX=0;entryY=0.5;entryDx=0;entryDy=0;strokeWidth=2;" parent="WIyWlLk6GJQsqaUBKTNV-1" source="CI9n8jhhGB8RwnVAwCXR-51" target="CI9n8jhhGB8RwnVAwCXR-37" edge="1">
          <mxGeometry relative="1" as="geometry" />
        </mxCell>
        <mxCell id="f5wqm6YAVryBw6JpzlOn-7" style="edgeStyle=orthogonalEdgeStyle;rounded=0;orthogonalLoop=1;jettySize=auto;html=1;exitX=1;exitY=0.75;exitDx=0;exitDy=0;entryX=0;entryY=0.25;entryDx=0;entryDy=0;strokeColor=default;strokeWidth=2;" edge="1" parent="WIyWlLk6GJQsqaUBKTNV-1" source="CI9n8jhhGB8RwnVAwCXR-51" target="CI9n8jhhGB8RwnVAwCXR-38">
          <mxGeometry relative="1" as="geometry">
            <Array as="points">
              <mxPoint x="180" y="896" />
              <mxPoint x="180" y="940" />
            </Array>
          </mxGeometry>
        </mxCell>
        <mxCell id="CI9n8jhhGB8RwnVAwCXR-51" value="CARBON VAULT" style="rounded=1;whiteSpace=wrap;html=1;fontSize=12;glass=0;strokeWidth=1;shadow=0;verticalAlign=bottom;" parent="WIyWlLk6GJQsqaUBKTNV-1" vertex="1">
          <mxGeometry x="20" y="843" width="120" height="70" as="geometry" />
        </mxCell>
        <mxCell id="CI9n8jhhGB8RwnVAwCXR-52" value="" style="shape=image;verticalLabelPosition=bottom;labelBackgroundColor=#ffffff;verticalAlign=top;aspect=fixed;imageAspect=0;image=data:image/png,iVBORw0KGgoAAAANSUhEUgAAAgAAAAIABAMAAAAGVsnJAAAC1npUWHRSYXcAAEiJ7ZdbktwqDIbfWUWWgCSExHIwl6rs4Cw/P9jumZ7JtZKnUw1lhAWWZH2Au8P47+sMX1CoZA5JzXPJOaKkkgpXdDyepeyWYtrtraJL+6QPjwGGFEg5B6yekir0+vbA7YOOZ33wa4T9MnQNwPAusjyvfn8fJPR86indEY2zk4vb+1CPy1C7Ju5Qris9wjrFug9PCkOWusKRMA8hibtNZwRyXnXp0UbxNQ93q08BQsUuY0jI0+vd8i5+adPT2O6Fj9mPP0g+10svH3KZrxyh890B0g96ebjh947lERE/D5jcpj4nec7uc47z7WrKyGiO54rayabbDCYeSLnsxzKq4VL0bdeC6rHGBuQ9tnigNirEyP4MlKhTpUljy0YNISYebJDMDViWzsW4cFt8JK1Kk02KdHGQazyCCNT8iIW237L9NXJ47oSpTDBGeOSHNfxs8E9qmLOtFFH0R64QF691jTAWudViFoDQvLjpTvBdL/xvZYEVENSdZscL1nicJg6lt7Ulm7NgnkKeW4iC9csAUgTfimBIQCBmEqVM0ZiNCHl0AKqInCXxAQKkyh1BchLBeWSMLQPfeMZoz2XlzEuNswkgVLIY2BSpgJWSYv1YcqyhqqJJVbOaetCiNUtOWXPOltchV00smVo2M7di1cWTq2c3dy9eCxfBGaglFyteSqmVQ4WjClsV8ys0Bx9ypEOPfNjhRzlqw/JpqWnLzZq30mrnLh3HRM/duvfS66AwcFKMNHTkYcNHGXVirU2ZaerM06bPMuuD2kX1U/0DanRR401qzbMHNWiD2W2C1nGiixmIcSIQt0UAC5oXs+iUEi9yi1ksjE2hjCB1sQmdFjEgTINYJz3YvZH7LW5B/be48a/IhYXuX5ALQPeZ23eo9fWda5vYuQtXTqNg92F8eA3sdX3U6t/Kl6GXoZehl6GXoZehl6H/gaGJHw/4Exu+AV/rnXtD+tEkAAAACXBIWXMAAAsTAAALEwEAmpwYAAAAMFBMVEVHcEwAAAAAAAAAAAAAAAAAAAAAAAAAAAAAAAAAAAAAAAAAAAAAAAAAAAAAAAAAAAAlTPQ5AAAAD3RSTlMA/t7F75EWBE4msGU1DH4/QymUAAAgAElEQVR42uxcX2iU2RXPS2cymBFOMnlJwUtKBamSEJBiiWyY7gaWCA6KCJZI8hK2uCXkpVFRRJJQbYogLMHq2kCKiAFLlhjctiAEFyuGFnyRBiKyxqBsqQ9nZnxJH26/ick955v5/tx7v0me7pEBiebO/X7f+fM7555zGxqcOHHixIkTJ06cOHHixIkTJ06cOHHixIkTJ06cOHHixIkTJ06cOHHixIkTJ06cOHHixIkTJ04aGkaf3b6Z9M8/B/1rpn9z81nSP7f/sUMAXPzD1atXk36qAGj441+9Hyb8/H6HANj1k88Sy88Wqxb9Lvman93bIQCaBqREEIk++6tNYLogJUCiT/mHnXICjwVKlNL+I8qnR6rWTM0IIYX3j7YfkJ8O7hQAX3ZWHiOBQNvT6jWzkxuPYS8oDz3fKQAyxwQken7cd7Zm0Vd5TIIAitz77X7us1tqmx5PBADKorLW7L+VZzmByVSgT/nVs9vz/Nnb17f+ulJIpqwltdLFZwrVx5DMrg4ot3JzZFsAOP+rb5QN3ElisJ61qkWHPlGGe6kniWcRxbcqovzn0bYAMCxm1dualPb66sWA91sLZSdantbFs4Bc/5PSqvZD2/H86VVxVGnu7jwmcFdkrY0HsV99w3ghAQDYrTZ6K996eRsAWOmRzWrdpmP2GiDkAaX2QwU8qgx2OZ/ABMrKAlILUO7fBhc47rGffh8XsrZWFa+yD6RYv6KSrBPWngXlp0o7z82A3Hu97gA0ziDIXvW2htuFsLXWD2p3mR4p8K5yCEvWnkXIQyqenqnow8O6A7BU8AAoXSOPZfu2AMhFPSl4aUGHwuNCuzUAudPKAuYrIO+vdyTMHPceWJTvqx88sNQAjwU9VK98QQCKFmUDmTVrs2ojv9oFgr+qOsnXHz30/waJC9m+rb5BslasIEKe5StLzwJyn1pjqvJmBB6oswtclRUARElxoaY7IOw04L6KAWcKGwD0qh+sdFkCQNy6YbVim0L2Xa5zDMQNACRxoXGJViSg+R1Z64YSYbNS1+yaBCtQ129sLfGy5+PXYF0jocfT8eM3dSj9/ZFVTizkUbLW9g0lgtz9EXK1dr71E7XVW52bO937RT1j4EGxuWyRuNCAFQB4mGIA4MdKxh7yCp1WACCxoAmJ1RlnHWRzqxXGSZo1ZsNcRekR+ZXNRUXpW7X/VQsAfNx6bmunNVW3BJJSyR9IYq7DFm8LZCu97R71418oz3LGggsJ3KcWHVJqCS31i4TTnQQABdjUjAUAyO1daVCv4kK75iwAKJ8mrVK/LeBwvUpko/Pkm0V5toHigDBnQYSf8vheZHhEmYx5cBEflGO62KX2hNC2WL8YyOztiFK3YQsuRL75AsV8lFTRv1VAY636XGnVNADtVJ6qDx/2RXz0cSFjAFhN5RaxPkTyDC+N60KQU/4+vSA4AL31cYON/Dk5rlljLsTQSx1nq0LxIau7CEOzohr7uTm/vb2tiwo88TlmzoV+a8iFPBakfne5kwOAlCFOGRoWMhY05bMfLxLWww2mjgk/AMVFWy7Es8lJvqoXHRWXbfqpqWEpFpSdAD8ARDASyFRVuAfoZzmxGRcqqcw35a/+iGJ1hqCtANB2mRVthJ8g1OGwKLtQ9ZDAqnjTRlwIGYta8fs6lBS0XwAamRVjQbUU8WliAHZ3VSVoIKmKl+oyAgBP0Wl4deZPNT2PzRpVGP+i3tWbGgCS54QbtdBqSyYuZFIXQtGilDVzQlZpQPlvatExk5xYrJNLqnkdmDwSNtbGes6FXhm4bIEUPy51Vv0eQDfz5foAeJ6eGHvt70Hz27rGwC11vWLDhQSSsi5VMwgvmiuOmJkzYEHl/6q9LgS4ZPg8mRvMBJTqK1xIPcmYPhcS5K4DzhZF80kyLG3PgrKFMuGZWtMBJOplmQdi0Ld2kMvW5kIgj6gY8GU+yJuPmCcZyLjOUB4CDwxGEsXA4BdcUtHl/Jymx0KZoxgQ0F/ghSzK6e5o+1U4ScoIwUdGSXLCXT2IgYbHuJA2AIRaZgACAKDTveyYrgIIzoKCytReeOkfSRADgxXA0+bn5Hp1SQC56+Fgw+p+bppkcBY0LALtBlm1xbwfriskzLMTzYweF/I2R6nZ4xB/dp014unpVflurOdknRPGhYClfNii9MXZcU0A4kzcU9ZTDYZNSGKdnFFP2F7tq6NeDISwx1GLpoe0XLanrM9j+sEAyaN7SYZWLaiD4lU+dK/WOeFQqCUitDDnY1q4DFVWep9aBVefzkyE6gw/jDMrBMyHkhwv/PwwQtRdq3BJMWBGxBpWelILAGowapyJAKDFLhJ6GasIz8I7RuIVhVN9OrCfDqP63FovabQKIDJC1o7h/w2scsKY3tUWasqK50KV8pxaeF5AfLrYdCKWY3sIcRYkItBvHbSKgVEAQJHnxLEAYBu1Rs6EulYAVjDQAGCd8DoYoTCAzaetzgOjGgB8LhvirbVbw7X6koxXseVxIXWPKKwi4WgMF2EktCmOC6HIvSNljdgqNlMcOBZnWCI3q5k/8sMMbXmRjwGgrAwwNR4LQC9r4Yl6VzlWNoY4AEqLLCWLBkDeM00IUqsxNsi4UKXdMUZZKSedykdaKxWNfh1TcPViAAtEoH14oikX4qrznste1OVCvDVyPrKKKNavhRTOa7+flVhjq4hgXB39u4gDAIBaMCZi/NWHQTq+jQYAf06ZSDQA0LwYH1gofzWsjr6Mp6LIuM1UHiLhv3dWs+CJgtomd/VEvQPPBL8wKEuZ5oRLGoVZJOp+McoJVVojWYkpBgBqyM6sRbkhAUYJqWEkzLzWyccpFWl4EwlAn3pXjT1xAEiKA19F+VZekjioA0DzlbrkgT57pZLzdOQO7lMLUFz7AwK1TS5HcCFgLGhao7cOeYuyTh6ooQA+Khoe3VEUv6cGGIjbKui1TQIdT+kd0XpsXD8S7mrXqfZ7ObGi2KNjEQDQoEmjRo5XVo2E6ScRT1b6l/purWYt5CQrTh4I1FjSA1WVMdPhXEiUD0efM1Xr9h6F13LoUALPGobatSqowHpUk8fAmkrDufDjLNYaeVxjYVF6F9s26Tv2HdNsMdePhEualW7Jx5UXQmFqZV5Na1XVNtlwJtQE+PiS9umkZiRsOqF7PA2s1h/GcPg4gA67qGROsa0CPBHRHrlF8ctr9YuBm8K4UHBOjLL52tYLTb3W22c5tm1S4KxhWf6jz9LKCUcNenRE7iQbVAgmIGwkSG8cwt82GezP1r8xYUFqYRoriKqFtoM+AEjV/iEIBmCWZTeaALReZ3oV7NDV135ZMACgPBuvAtlJ/ef3nfcEVzpYLSZzXHOrgnKHhsA4AL7hLf12EoF74s8JL84ZtUAjxaygXgmQP6b2+IL2PmkQfDqAknjZFZ2IDRhsVurcMbBUQBMAZHckz4cib43U3aZspVT/YBAAts2qAjriImHTa6P+X48L3YiIWRjeGhlpWFRBqoxB1maM/XEH+KFxoOV3cbVQQwVgrdoBTUqIR9W/Glw8wq8DeVGjVwjN1LBueO1EbE6YXRWmK1Jrz5ManoOSnXSAAQB911njR40GUCZ8yfR9xVVHV9pNp0DYXEYNF+KHyCYD98iG4dNj1XqVaGhFFKNzQvM7DIDa27KrEXWo3SaD0ew6hNpmbVn6dqRmmks/cB+NioTn5ownNwXso5y4JhO+y45aTQBgmpqpisuAe57bD67F3LazZH4zBgIb2uvykyhWMjK8dkUUT7I+tCoA7ke128VuNyonPL8GQhoLvA9pqQA8QjHA1LaIY/sPPnlkzVgMryIbVa6RYUALAJi9+rkQsHKB8ZgpcWx/PzLKvdYjO5sO9lBEDLTQAHb2nz7HuZDHOp5SDDBzLsjOXqvIDllA9jubAXbPv1wOAWDZ7l4Q1pKeXmNGyaeZhk3fVVjbJAp7FlQbRqvaAsfyVqPb/PoGfx33PTu9NAaAHX4PBA9uXhB2AMi9wdXRxhlpeZERdYA1UbsiCgplFiOWUA7sreY15nEbl72RagRWR9PmQ6sqZtH5AOXvQh6iDhbzq/K8EKI49tcs3LNR+zvW97h0DwbXQm0BYLkL1XFZKM8+kBYAtFEiSSQCW2nooF3aAlAMioTTBbRbT/ILDLw4sLUKJQmZLoutilxA2yRAEhZE5hUQCVNvEtyQRxc3qTou4L74Pt5oWPfXzFjxd5c5Zn31Gsj1Wje43CkTCLvKbavwlaPC3rzdVkt8ym5TiAXtTrBhpOYC5lLt77LjI1/LXZuXmPTd0OjjjdQAdvy1NWcp1Em7HQtSGVxvdYG8cS4BAL7xvLVNU1KNYekhu0to+QHo5m2TjAWdT3IFKUKuOhLeSvL8nm+iOu6TCj3xss7vVdI+YbtVOgLPbrRtCrmHLqAoJDFZD1z/CUHmz5DkQk/AD4u+HgAUrZqtkZGr8pIy+Mbv05NCJAEAW/wX7k0nu9SXdwKmKtcDCTxMLWQgbGGlA6DlDS5UpFPDgWT3MAP65gmN762oVSkafz/j4YssQVq1BUCKFkX7Ro/7r11Lfrm1797RlZ7E91pTHXfXHAK/FaXr/+xdb2iV1xl/v3jf3CVXODcRhoMeMiq4WQyhMnRKQ1YKRUtSS+pWJjOsuErDwv0yozWKs+0KwrpQCQUHQoqsOlqiiXQwCA6dDPKh5MumU5E1tRt+cHKSK4wMfHevyfOcN8mNOc+fe/th9/Gr9+Sc33vOec7znN/zO3wAXPpisVz7UmDkmFc6DJ1fVCMvFDV26bNQmdvkL3ivdRr+Zt21iDbp5Yay+2RLtuxlU7qjDSNCOMuHK7+mSmehIl7A5C5KOplfpDbpmRNrW40YgCIqW/LjwDQAXir1RodLaWO1Szrp0lQBg9yZ3KSRz4Bksz9oCrfAJX4g90qqUE0Ebmnbu+5hnf3Hk6r66W0je6vfJAoAmGc8vy/vuzom+lQmj2up0JPiz3UncrMgXlT2UwoAJL4q5Mgmf7XXJgOgxSeAPt9Kv2l/co8XMs+3OhIjb86lpYBQECV6V3heSdFlbuNkOLhbp8fzB8v4hHUKeJa5TcsJODnpYk25vkUlnTo9fuwJG84mSs3tXJ5pO9AuBaCSLOJVrR4/1h2lcmKe0NxyQe+rUgfr3HL9g+wXOj2eV1v7e0+iZW5Zpi2MGrlKum3ZGjjSqtbj5ono/W41AFJnITywKXyq7ct0HfR6bHZEv/+2nu1c8rHiYY1WlxK7Ml/+QK3HT2+IXn311a+0/v1kCQC5zzUa//GS9F3mq6/0uvzvaKAQD2j9G1jmBxUaX/5qkF6HS12O6la3utWtbnWrW93qVre61a1u/4/2M3XD+yu9Jn8Ovf2bem+jZ7Xt+8BradRrE24IMyfVexs9a5QtD7cija1aTbbAzXO2R7u366L3W5WbRI23hi1qbQJfbnCLcmft1ujwR065UWAHNfVotYyVJw3diW5fmyeiaNIqXTNApvmbsGAvad1ftByHG4F53oielTPODe06d4N4mfVfuMv6s1aTM3DfMJxofis3r4ESn0h0AUDK4AdaTeKl40llAObpvH2tqgD4N1je7FRqERnS45r9LC3Qefeauatx256asEAPudOm9KGgHiPuUZ2qSfOFBeqFLgDuh0BkGVUCABhHuVFdAEAMbvCs6tJKgIufHVVaW4BoU4fml7LIZq3wlpBoaSGlYZ+SYwXuzYFWRQDSbxA1tqsCgKUud3UmFizVaLhNFQBfj5G5pLoLIAf1bR0AsNT1dLfmd3r+uI+Jh9s0dwHUmHvXqpC5kDB8QnMHSNIv0WVGFJtOigBtv84XQ+XO3yge2L23fuxgr2nOgCKw/A91q6ysl4Ae+EBvqzKuaxHx5BC3rKUisQuCtyaVk5DbBrHgPqe3A6RKkx+DqxkQIMU7e1ajOSzBbexQdAFzSwhd/YouFiUlMq9oNDd7fyHBsLZTEYBzS8mHmgHBCwuNHh3XoKFj8dw39FapnV0mszzZqbYPujlVRt8cOIHTaj20yaallMaoaUTPEaDQ5lsacK7DE7seACmVHrRAMeGgSQt8wbUaByEQbs1M6x0CfG2Dt8ZWLQD8vn2kXT5+ZZ8ynwrbUeGKKED3O/gkhJnxEQUAIGZpeloNgNlKknLcIu9KBuVD2S/ETToz4XPiOuM3XgZzkQ3uU/KEzkJmPHdJMbLos1apey0Tle9JT1otAPCcrZAZx9jymhoAu4YqA3CjXcfPOLsO1thVOaRYlHxSywcWV3pxJp5OlBxBKocj3rCeg9k0rdM3k9JpW2rHOpUAaIFYu08OAOYt9ikB4FbWVT18VykmNC8vtHi7Q1w0BQ8PZUaVfGB+ZWXd+LRRqkf7XUGt15ATv91uVPanlDTLcrs9qgQA3uXsVltNd1RS1y71+GmlKTCu5Amx0El8fkdx9v0q5yCTUnepZLeU0sPf7VXyXXjXHJ9S6ZitGAakAoJpHQDy4LyvSTv86A1VtoFPr6ywBoa7VTxhC8yzPimg/lSt0TGTUuqsbDql1AYlVRqk6iwgUaVSMFx+/bawCnHyqtVYBHjaHBRmBFA7qkHj7sa61Z8dvNGhAQBmMZrOylrzOfF2FQDOr1opOaCyDabyWKKZ6zVENLJr1q0oKZyyPqOx2zz0mUxZWAWFw39V+S7PBLCnRUJ9HgBYa6/LWls/hRl2ea9s/lcBAMSTclml1HuQb8n6DXcsuXEN5aDN10MI9I0jCqkxzIwfkwXEirdszqbeyX3iFDihEBDM7Cmo3GgiUX5EPgFS6r9PBqBPIyBQudN2ieJNu3WfFIIAiI72KKTGYL/NPBA1c0GNa2GS5j8EAhANKwCAvJbLophiwW/H/QoAbJoKrSNiiMEvW29d4MBPSJp6HnPi0vGHhAFoOQWpJky9hj/gWQFGVFEat2IA/PPPq5uCWBdmxs90CgBAzuVF+QygvD9/cEzsCYuQyzvAp3c6C+U38W7xmgwJA1J5kTaxzCxkcwclBwHIiR8eEX6QxbzI1S0rJZA7dLoSjrtB5r1U9tXO3o9INin0hDpVDqjReEeon2aSrjdI448PtTvZpHNY5/KlIKSCdftmt3BBFvcWaDMgI2ZO7pRnxn391U+FXyNZP0Qtqr4j5YtAZjzez95O7FPgBK7I1qNNzhWoAEhLqczMompHninVYKafpwq2gWuy07cpQhH1IfZJCB8IbRJmqdyLvWQAosEtMk+ImfGGLV9jE/NLaeYeffzRAON1pEWow+fL9rBX0T3kMMp84AtDDACEfzXB1xYrPB0cegyAe7y1wmP5OZa4RvaSzBM+Wth4B65wZ9KsStG0c83v8eRF9ovSw/YhZARe5zaBOXFJ0XQJ/e1TPAAOj4o8oc+Mc49xQGbJSYqmrWv5F1dhZlIUFOODA8e4mwkwWnOSomlLDQPUmJMzn2IRNe+lKQMBZUYSUduW82yNocyYiDX2PSQh81pxUNycbZO8gzb3IV9lSRYQALch5tb7XUDmkgQAehiQSg/38D1hKqHH5IzjEzNn+Kdyl+Q/kwhtne4W7AIvCIuo4SYrFiSWrdvcKwHgtmQb9JlxXjjkrxYEW2Bxj0xrTXIrjfI/v+1mPbi4ceHbxfy3mkyy7k8yAG61CSIiyIwzn/P8Dl4vOvYOUNxRkAEg4fg4mH0HWQAgT3xwlA/A7K+leoPD3fy/LrvcR1bzkXbL7gI3DEgxJwVv+uBRlkPv8OWXv+AepZ1t+adccvJtvhPeIAlmPM3opmED0DUkB0DAnJyTULwsEs1O8X3g+YIcAH4plUEVuP2cBh7BZf0J7t9PSBeiK1q/ZXbAeZon59dANj3IdUSmuFFFdzbLzUmbvE9q0lso+pw41wXMTBQ0AIhPc5W2kOrddJbx+UDlpIHnBJzBTVhqh7h30/gAffnBUDIA8CRoY6fluYBkj874BaVUkBk/SH9928zAIf4YE30jDQPSEjM8T2gfwRy8UvucuHU7prQAyHGJuni9zciM4/X6H7mnkIlIzbjMSUnRH+TEY17poXGbpvQA4JZSeXnRDrIPOwf9Z0mHLLwmqWZXeJ7QfczPjMMpNtPOcwE739AE4ACPOelLv8mZcV+A3s5KJyV7C5oAZKYtqxvPwEJ+QM6nXUAJAtZfbj4eqdoZVnoYU7LxGPXXMIB4mJMStm7jlC4A2Y9Y3hgVm96mfsadKEPCAmD2M93xl0J6TkzovAQMLa2SUnp5hxUIb+hVBqCcmGPsgw6yOn3UvNKLsIdddgwfWNyrPf4ox2NOwmlskAoA5MSzDzgABJZHEQMC+hpwCcS0WWJMWwQH2kA/QTgqNTxwCrDeUYfM+EHiec4L0nUwXACDFxlgLOndTQU8SNCiCFg7a+hOwCa7rlcDAI4IPVcO0q4HL3iT4QNn9lRj/OUx0PcjJHqdpoH3EH53irzzuGTdUFUAiI8xAgLULFlDG8RTSNtnAPCjqDqWmSbfkpkZOJHRRIExJ56dpvsALi9y9SnwJr2UKg9+kCSBYYrn2Plkm2zvjao1BejSu8VtnJH4t6WaOulb4P2oanYyMVQEMDN+kbCYjYNr/UPkbHLSNVQ9ABo6qFuS/Q+sH1JQUwQv2E+cc87fxlRlDdD35EfwPShSWK4ZfvUuGYDmD6sIQDkgIM4AlNkmPRCCz5SMk32ghBcZQCDvoXpCnxlvI4wCOZbTVB+Yn4iqapPUsLYIyc2+DgIAeKkzQgVg01B1ARikMifNx3Sul3P+sSqqD3wtqrIRS6mcg/x+jvAx7cvIz3E0H7jueLUBaOwkhUQpWdwvwoHLw41SfxvRB26t9vij7CVjSH3aDItyLPx3/m0pIgCz71UdADJz0ktjh84Af7Mff0BabiZ5rlB9AKgi9HnIT54JP0Z/C7zgOyQAbMv96o8/ioki9CiPfytcHf5FOHleJO03tmuoBgAQmZPOQUagKfgo6CAn3rSbgrWtahjg7SiROYlPZARnBGZYT3QYX6lYZevvpgDg/MPhob+aAYrz2lbCHzL4wlW1jVZK5TbDgh4LXDoWSf5rDMUHznxWIwCiUxRP6Ly8aOguiJV+N8MdR2lS6l+IrmQ0Efq5XkzxWyJkVxMKAHtqNf4y/z98bqYmdOhYuuA6aSx8Blh/l1IDo2hOOqxcXBt4rsXNLPtK+B5ozY7ajb/UM8JRIA+xbUOgH3TAb8oSUumliVaoIQIkEfpteIh2Ydv5PfLRqbQkn5uq4fhLJxQCX+QlWNKXA2cAHJ5vBAeepUD4XlRTo7zWvQvcwC8Dz0EYPtlwAHhCMXy7FRwQOPsUDOhK2HhQSPRk8BKw7pOp2gIQh4vQO+rT2ZhCCRYSNcn6C1GNrT/8JICElf4wohAUTYcn0UyysVBrAMLlvZyBDN+BDhPy37dBGnVf8CmwdmGAXwOTofoiLgE1lWzY1cCn1ER6aQvsrTkAUWNwQOA3qKAsP16lBIv7Ovda7ccf5cYCvXSqhPtuyKqZhRWzvzV0Bez8y9cAQDlnH7gLYJwactWJAsBxqJCodVunvg4Acv9r7wpDq0qu8Px61zR5C5OkUPLDIVCLrWIIWHCxJYQ2IEnRRoIlVDC0yIqCvD+miYoUd7tCQBoqQXBp2AcWFiq4q1IpVBrMihAohJYF2ZWANgQWuizz8vyTBV/ffd5z5t77Zu5MdrO+mZv5fi37XoT53sycOd+c842xCX0XNG8smSgCeKH+J9MQgHPmNeORIQEclPHApNyBfbXJkgpaG1luDQE7ymbpOq2CWHnBZNc4hHdQRvzyWmW81BoCTE3oRcmTSRswPgd3cdRsB+Q9E6RFMIxTVDRRl/W/aRV+z/Z+owlAa7dKrSJg0rCVKibx6NnCQ90Fowo5Tre6PWpTusigUSTkh4m5yLdJCZGJ1KEFMDWh/240SU1Kn9ejLT24YUZA5xppIWaMIiFDof+0AVkRAUUjI9Fvty7SICHoNwkEvAum9Tnt4Q4vkorPjWLga7oQVcHQhB6n6SV9PvhX+KdvmuTO4m32FuGskedkFZVxXQop3kJpM4iC9UPAgVJrCSiMGkXCH8Co9Mo4FHl0GPQMc9Z5v7XjJ8EjEwIoKOOBtg0SNXGTVkvORiZaTACZMoiEnJo3wuKxxqTZlrUsDYhNAaPKSdFErQkDfHgTmjjlPQuk5XjDpKMUf1dtMzx6oN5jBgR80PrxG5nQc7RDeC97a+MU+/6fmcTAqxYQQG4M6l/kQWX8qe6K3Nx0oz7x9i3bQMCkiQk9bFaTupMQaOJTt/UEfH3b+C1OCLSRUPRxFDXNY5VfictHbR64c8EOAqYMnLbg9l5ni7QOB5tPtEGAtTgNiJ0GDbL8ISBAY7ONLUYG5lsb/7KEAJOEYH0CTo6Zs4W9nDDVxDk/uGwLAR36VioseljJ/h5o4sV3NLOqngb8jViDRZ3LEO0Ge9H2zC+iBeP0qnYL3DdrDwEXdfUitPo/SIi/n5k3g8KrbTVm1XF7xh++SqWZsWb2orR7XEQWjRQ2fMUiAshnurK5mCFA1jcr78KlANccLPhem8avGVZid8tqP6bYX3NSd7Jav2oVAWFCkL1k0Sg7sw8KNfGl7CXFLUkDYhelGhN6KmxhmMF5qZh9XuKsukYsw9vZ9SKsC8+4fQYn5uLR7KyZDS3YRsAZTSQ0yXJiOVNZlwaUbCMgOJotjXGj2i+IgtmPa1HRlG8RdCb0b5ooHaCbZD/LQvlu+8YfVk7SrFUrtC41T2bKGa9V1kr2ERBcyy4gx6P7ZSUBoqo4622p+kQbWrZwBui8g030biP1vE7AeMlGAoqZJvQ8poxT7T3Pvey6yN8TK5FdOclhfZ8aVPKENsTPeFYifMDO8ZPJzFYqqr/1xKbp6dEsAtYfWEpAfetSR0LOj2tjfNVEE6e1b/aA3reaEOzPuCTCm/xJ5aMpnfhMa19GDOweJ9biYdYt2T445v5XKfNCvnB+MIOA4Vlrxx9kVk4OA52tfagAAAgiSURBVAGq6ifWA7VU/2EZMdC+NCAWCbM8J1EZn1N9Y2c0tGBRuZdQ1vWhxQQEWc+jau1FY/WUSgIYP7RMLEbHTWVHAK3oHg7iEN/bxjJqQtaI1ZhR54RoeF4PFtnK8cX96hjYivaozSDDOxXr4DtG5RyJqnp1JsCPl+wmoHhHHQmhE2JS3glBu7GvQn2a6rlCLMdJZULAvoJNXuEPhc8Tziv/CXzF0+IpMKrcwF/AAH+jUANgec8o0yC0mbMYyvtvtgFZrKIfbhc0l91VEjAyYT8BF/er4gB2t0ldAmP9lWPK24Dxkv0EFJQm9KIntp/LCIAO2+C2Kg3YuE4cwIoyIcAm6rKUAHhoeXpAFQM+KLlAQNuqXBrjDPriA2lDHIWit1O9ir/vukqcwJy8XoRTdAuWNVGLh0Hm+xRpwJ4JNwiYLisIyPbG0GnirHKs5AYBgaKVStR2LzHJBIfup+AhU6QBC8QR7FAUkHfCbzwvE4axBfqPivaon7gyfmU+j90gUzLZ4Bfw118qakIeO0OAonKS1+BKr0OyzXF8i+KE/I8PltwhYFpeL8Ih4W+TJPwV6CxrH5CXhj8gDkFuQo9N1AVJE/U6aOJS173XZZm7VXHgqdSEXoh+d5s+ZigZfsf+ukgDBuStVD2QM0u8MjcgFzwt+UsqTgmOEPDZoIwATGbON88O8SqZjIDqAeIW6gkBl1xrojdA02FPuO9Kai55rfKuYwSQ0zLrXdS025tLgaEDbnpMsgNy2+oiDXSRsmQJVIVnNlPJvR29TELAGnEOslaqKlQ4dzxLzXNKof1hx6ATdZF6SCsnQRkvfpSuBc5y4WcOpQExeVjWHwYvJwRN705hnfgjWfS44iAB5GRzJGTwdgZZTH+U8RIHrR1cdpGAixITeqUyjq+Uk6bXWesx8HMXx0+CRdq0C+DFxpmk7sdrB+Ch2PTFSlgXOeEkAWRqoCknFC8oJZVxXlO+x2RtXaQBJCb0kPMWUto/ez/64Gk/TV8H9VxxdPzkTFoe5hxeUQtOJD/pxrWRvl9ndLer4282oVe/o9f1IcSOI+7URerxKJ0QcNjPUk3U7EUUHoJrzPb2qM1gRzkdCbvEeSc+UrYTjgEf07QY7OwWGOJyKinm3UDA2SQB8DZr8Z30rjG84PD4m0zoaRWKQVN1QHujn7ktlSUxfsvlCRC2UiWyHsrx9YheaQFV6m0pWuu6T5zGfFIbFM4/bYkmarz2SxmJts4yd6vQZEKP9qLxOEjXQQ24NJg8BVbW3B4/KS4mt0G+E46CCe0Tr73OpWKAq2mAwIVU78MLmNIJe9ENOCAupQg4XnKdgOKdhDQmXqI+H18aQ/DtxI0JZ47dBsi3wWTlJB5s48o42isUnqfao5bdJ6AwliCgAk+iJe5A5bGBVb5wf/yhc1B8tVfBLS3WRC1eiJjuS8TMwxM5IIBM9SesBX4oznxiCTzA8yGNpwHH8zB+Uky2Uh2Cff2fEk387JFEXeRsLghImNBzdvgtTJQkOaKYLJzW3KiL1GNyNS6NCWX8iFAJZptVAs5sdEn4mrpIvCgMtZ85seHtgbm+Gt8tXKmLNJDG4ta7Qv2DHmJORdO0+B7rPEZyg0Tl5C8hDuLDWxxC43SZulgXqT8KtPdiIOAUbwBQGa++H33xSTkWA2/lZwKEby5zUfMO8x3vgCqwKlZ6BQGulIab4ZNY5SSqvHju34j2xeDTQXEd5FJdpMEUOCEi4TBs7jORLspewGr/rUiDbLHM3Sr8QSTF6xDz5qLYwF7CovhY9EiPzOaLgKn9GAmr8HtfAk6+F832wj1QUBlWE+UmEGDlJO3GaqDoKFhFI9ExURf5OGcEkJU+IEA0UUcKcHPtWH7SgNhpcBUiISrjHWNRXz3cFUD1IOc2WeZuFW7Aq1RC/3rVV0ErEPHfwBjo8oWoCtO3YRt8CULBK3tRit4aJ7FD9BjJIcA7hb14Kxn2N6LyoCD6BhMpc67iwJNIHmZY9Rcp47sgObiLdZGlPM6AekLAkiUfkV8SHHqLY1ATcoXkEnNRQlCFJuGGMs7xArzQ72B71GbQEb1Khel/1B8GN8NtvWCZm1MCgsVI9AbTuOKXDQKiXJCc6ntFwK5ZklM8adSLcHYI8sGPwk2hE1b8KxemehpQyisB5E4jIeDYAddQxsEfMmg0TTvXHrUpRCb0+FT4UiiADCEd1FrL3C07Da42CBBN1H2UM3g0NQgXRD7TgFhC0Kic5FD49CRUxvfGt0SeyzRAILoShqN+W7jv/xQ/a4SIz/M8fhKEJvS8Bop3oVw/FgEbYTENZ0OP801Ao5WK4uH3aKxp+lxfWBp+INcroDHkWBtkWBKEqdGnRyy1jd9azLPwvfhlkSKjw9i1MAbuWc47AR03QzcMGPTJmDzykFNX26M2hWs1HhfB+AhEhNBlEC9Ncown/XUC/g4JcS8aiTaKanOcBoht8A6jePO742a3EMnzURepx3uDtarwj62i12w9Fdq9vB0IaKsHf1j4hXsVOPhccrs9ajNYorj1k4edEBDmarXD17cHAVPlGgb/fw9Hsz6YyUtdpME2eJltQBw8/WMg4Dn72TaZAPXlPlCB8oeVX8OpeCyHF6LKKbAqyqL+EY26MNB5f7uMnwTzFEWAP8N/9LtgmbtlukgZ+gSLEPnP/Hxt+4yfBG83lcHO/ej6NiKAtP9lIfV/Ztxvj/qG+B3x8PDw8PDw8PDw8PDw8PDw8PDw8PDw8PDw8PDw8PDw8PDw8PDw8PDw8PDw8PDw8PDYEvwfM6M9JArWF18AAAAASUVORK5CYII=;" parent="WIyWlLk6GJQsqaUBKTNV-1" vertex="1">
          <mxGeometry x="59" y="856" width="42" height="42" as="geometry" />
        </mxCell>
        <mxCell id="CI9n8jhhGB8RwnVAwCXR-58" style="edgeStyle=orthogonalEdgeStyle;rounded=0;orthogonalLoop=1;jettySize=auto;html=1;exitX=1;exitY=0.5;exitDx=0;exitDy=0;endArrow=classic;endFill=1;endSize=8;strokeWidth=2;" parent="WIyWlLk6GJQsqaUBKTNV-1" source="CI9n8jhhGB8RwnVAwCXR-56" edge="1">
          <mxGeometry relative="1" as="geometry">
            <mxPoint x="280" y="960" as="targetPoint" />
            <Array as="points">
              <mxPoint x="280" y="960" />
            </Array>
          </mxGeometry>
        </mxCell>
        <mxCell id="CI9n8jhhGB8RwnVAwCXR-56" value="GRPH From Team" style="rounded=1;whiteSpace=wrap;html=1;fontSize=12;glass=0;strokeWidth=1;shadow=0;verticalAlign=bottom;" parent="WIyWlLk6GJQsqaUBKTNV-1" vertex="1">
          <mxGeometry x="20" y="925" width="120" height="69" as="geometry" />
        </mxCell>
        <mxCell id="aoZYSE3xc6NWGzjAAOQG-0" value="" style="shape=curlyBracket;whiteSpace=wrap;html=1;rounded=1;rotation=90;" parent="WIyWlLk6GJQsqaUBKTNV-1" vertex="1">
          <mxGeometry x="355" y="-145" width="20" height="450" as="geometry" />
        </mxCell>
        <mxCell id="aoZYSE3xc6NWGzjAAOQG-1" value="CarbSwap Launch Process" style="text;strokeColor=none;fillColor=none;html=1;fontSize=24;fontStyle=1;verticalAlign=middle;align=center;" parent="WIyWlLk6GJQsqaUBKTNV-1" vertex="1">
          <mxGeometry x="310" y="30" width="100" height="40" as="geometry" />
        </mxCell>
        <mxCell id="aoZYSE3xc6NWGzjAAOQG-45" value="" style="shape=table;startSize=0;container=1;collapsible=0;childLayout=tableLayout;rounded=0;shadow=0;strokeColor=#82b366;fillColor=#d5e8d4;" parent="WIyWlLk6GJQsqaUBKTNV-1" vertex="1">
          <mxGeometry x="611" y="780" width="199" height="40" as="geometry" />
        </mxCell>
        <mxCell id="aoZYSE3xc6NWGzjAAOQG-46" value="" style="shape=partialRectangle;collapsible=0;dropTarget=0;pointerEvents=0;fillColor=none;top=0;left=0;bottom=0;right=0;points=[[0,0.5],[1,0.5]];portConstraint=eastwest;rounded=0;shadow=0;strokeColor=default;" parent="aoZYSE3xc6NWGzjAAOQG-45" vertex="1">
          <mxGeometry width="199" height="40" as="geometry" />
        </mxCell>
        <mxCell id="aoZYSE3xc6NWGzjAAOQG-47" value="Target TVL&lt;br&gt;(at 100% APR)" style="shape=partialRectangle;html=1;whiteSpace=wrap;connectable=0;overflow=hidden;fillColor=none;top=0;left=0;bottom=0;right=0;pointerEvents=1;rounded=0;shadow=0;strokeColor=default;" parent="aoZYSE3xc6NWGzjAAOQG-46" vertex="1">
          <mxGeometry width="109" height="40" as="geometry">
            <mxRectangle width="109" height="40" as="alternateBounds" />
          </mxGeometry>
        </mxCell>
        <mxCell id="aoZYSE3xc6NWGzjAAOQG-48" value="Rewards" style="shape=partialRectangle;html=1;whiteSpace=wrap;connectable=0;overflow=hidden;fillColor=none;top=0;left=0;bottom=0;right=0;pointerEvents=1;rounded=0;shadow=0;strokeColor=default;" parent="aoZYSE3xc6NWGzjAAOQG-46" vertex="1">
          <mxGeometry x="109" width="90" height="40" as="geometry">
            <mxRectangle width="90" height="40" as="alternateBounds" />
          </mxGeometry>
        </mxCell>
        <mxCell id="aoZYSE3xc6NWGzjAAOQG-51" value="" style="shape=table;startSize=0;container=1;collapsible=0;childLayout=tableLayout;rounded=0;shadow=0;strokeColor=#666666;fillColor=#f5f5f5;fontColor=#333333;" parent="WIyWlLk6GJQsqaUBKTNV-1" vertex="1">
          <mxGeometry x="611" y="830" width="199" height="40" as="geometry" />
        </mxCell>
        <mxCell id="aoZYSE3xc6NWGzjAAOQG-52" value="" style="shape=partialRectangle;collapsible=0;dropTarget=0;pointerEvents=0;fillColor=none;top=0;left=0;bottom=0;right=0;points=[[0,0.5],[1,0.5]];portConstraint=eastwest;rounded=0;shadow=0;strokeColor=default;" parent="aoZYSE3xc6NWGzjAAOQG-51" vertex="1">
          <mxGeometry width="199" height="40" as="geometry" />
        </mxCell>
        <mxCell id="aoZYSE3xc6NWGzjAAOQG-53" value="$12.5m" style="shape=partialRectangle;html=1;whiteSpace=wrap;connectable=0;overflow=hidden;fillColor=none;top=0;left=0;bottom=0;right=0;pointerEvents=1;rounded=0;shadow=0;strokeColor=default;" parent="aoZYSE3xc6NWGzjAAOQG-52" vertex="1">
          <mxGeometry width="109" height="40" as="geometry">
            <mxRectangle width="109" height="40" as="alternateBounds" />
          </mxGeometry>
        </mxCell>
        <mxCell id="aoZYSE3xc6NWGzjAAOQG-54" value="$12.5m" style="shape=partialRectangle;html=1;whiteSpace=wrap;connectable=0;overflow=hidden;fillColor=none;top=0;left=0;bottom=0;right=0;pointerEvents=1;rounded=0;shadow=0;strokeColor=default;" parent="aoZYSE3xc6NWGzjAAOQG-52" vertex="1">
          <mxGeometry x="109" width="90" height="40" as="geometry">
            <mxRectangle width="90" height="40" as="alternateBounds" />
          </mxGeometry>
        </mxCell>
        <mxCell id="aoZYSE3xc6NWGzjAAOQG-55" style="edgeStyle=orthogonalEdgeStyle;rounded=0;orthogonalLoop=1;jettySize=auto;html=1;exitX=0;exitY=0.5;exitDx=0;exitDy=0;entryX=1;entryY=0.5;entryDx=0;entryDy=0;strokeWidth=1;dashed=1;startArrow=none;" parent="WIyWlLk6GJQsqaUBKTNV-1" source="vyJOtIpLA4B9oOSK_T18-20" target="CI9n8jhhGB8RwnVAwCXR-34" edge="1">
          <mxGeometry relative="1" as="geometry" />
        </mxCell>
        <mxCell id="aoZYSE3xc6NWGzjAAOQG-56" value="" style="shape=table;startSize=0;container=1;collapsible=0;childLayout=tableLayout;rounded=0;shadow=0;strokeColor=#666666;fillColor=#f5f5f5;fontColor=#333333;" parent="WIyWlLk6GJQsqaUBKTNV-1" vertex="1">
          <mxGeometry x="611" y="880" width="199" height="40" as="geometry" />
        </mxCell>
        <mxCell id="aoZYSE3xc6NWGzjAAOQG-57" value="" style="shape=partialRectangle;collapsible=0;dropTarget=0;pointerEvents=0;fillColor=none;top=0;left=0;bottom=0;right=0;points=[[0,0.5],[1,0.5]];portConstraint=eastwest;rounded=0;shadow=0;strokeColor=default;" parent="aoZYSE3xc6NWGzjAAOQG-56" vertex="1">
          <mxGeometry width="199" height="40" as="geometry" />
        </mxCell>
        <mxCell id="aoZYSE3xc6NWGzjAAOQG-58" value="$12.5m" style="shape=partialRectangle;html=1;whiteSpace=wrap;connectable=0;overflow=hidden;fillColor=none;top=0;left=0;bottom=0;right=0;pointerEvents=1;rounded=0;shadow=0;strokeColor=default;" parent="aoZYSE3xc6NWGzjAAOQG-57" vertex="1">
          <mxGeometry width="109" height="40" as="geometry">
            <mxRectangle width="109" height="40" as="alternateBounds" />
          </mxGeometry>
        </mxCell>
        <mxCell id="aoZYSE3xc6NWGzjAAOQG-59" value="$12.5m" style="shape=partialRectangle;html=1;whiteSpace=wrap;connectable=0;overflow=hidden;fillColor=none;top=0;left=0;bottom=0;right=0;pointerEvents=1;rounded=0;shadow=0;strokeColor=default;" parent="aoZYSE3xc6NWGzjAAOQG-57" vertex="1">
          <mxGeometry x="109" width="90" height="40" as="geometry">
            <mxRectangle width="90" height="40" as="alternateBounds" />
          </mxGeometry>
        </mxCell>
        <mxCell id="aoZYSE3xc6NWGzjAAOQG-60" value="" style="shape=table;startSize=0;container=1;collapsible=0;childLayout=tableLayout;rounded=0;shadow=0;strokeColor=#666666;fillColor=#f5f5f5;fontColor=#333333;" parent="WIyWlLk6GJQsqaUBKTNV-1" vertex="1">
          <mxGeometry x="611" y="930" width="199" height="40" as="geometry" />
        </mxCell>
        <mxCell id="aoZYSE3xc6NWGzjAAOQG-61" value="" style="shape=partialRectangle;collapsible=0;dropTarget=0;pointerEvents=0;fillColor=none;top=0;left=0;bottom=0;right=0;points=[[0,0.5],[1,0.5]];portConstraint=eastwest;rounded=0;shadow=0;strokeColor=default;" parent="aoZYSE3xc6NWGzjAAOQG-60" vertex="1">
          <mxGeometry width="199" height="40" as="geometry" />
        </mxCell>
        <mxCell id="aoZYSE3xc6NWGzjAAOQG-62" value="$25m" style="shape=partialRectangle;html=1;whiteSpace=wrap;connectable=0;overflow=hidden;fillColor=none;top=0;left=0;bottom=0;right=0;pointerEvents=1;rounded=0;shadow=0;strokeColor=default;" parent="aoZYSE3xc6NWGzjAAOQG-61" vertex="1">
          <mxGeometry width="109" height="40" as="geometry">
            <mxRectangle width="109" height="40" as="alternateBounds" />
          </mxGeometry>
        </mxCell>
        <mxCell id="aoZYSE3xc6NWGzjAAOQG-63" value="$25m" style="shape=partialRectangle;html=1;whiteSpace=wrap;connectable=0;overflow=hidden;fillColor=none;top=0;left=0;bottom=0;right=0;pointerEvents=1;rounded=0;shadow=0;strokeColor=default;" parent="aoZYSE3xc6NWGzjAAOQG-61" vertex="1">
          <mxGeometry x="109" width="90" height="40" as="geometry">
            <mxRectangle width="90" height="40" as="alternateBounds" />
          </mxGeometry>
        </mxCell>
        <mxCell id="aoZYSE3xc6NWGzjAAOQG-64" style="edgeStyle=orthogonalEdgeStyle;rounded=0;orthogonalLoop=1;jettySize=auto;html=1;exitX=0;exitY=0.5;exitDx=0;exitDy=0;entryX=1;entryY=0.5;entryDx=0;entryDy=0;dashed=1;strokeWidth=1;startArrow=none;" parent="WIyWlLk6GJQsqaUBKTNV-1" source="vyJOtIpLA4B9oOSK_T18-28" target="CI9n8jhhGB8RwnVAwCXR-37" edge="1">
          <mxGeometry relative="1" as="geometry" />
        </mxCell>
        <mxCell id="aoZYSE3xc6NWGzjAAOQG-65" style="edgeStyle=orthogonalEdgeStyle;rounded=0;orthogonalLoop=1;jettySize=auto;html=1;exitX=0;exitY=0.5;exitDx=0;exitDy=0;entryX=1;entryY=0.5;entryDx=0;entryDy=0;dashed=1;strokeWidth=1;" parent="WIyWlLk6GJQsqaUBKTNV-1" source="aoZYSE3xc6NWGzjAAOQG-61" target="CI9n8jhhGB8RwnVAwCXR-38" edge="1">
          <mxGeometry relative="1" as="geometry" />
        </mxCell>
        <mxCell id="aoZYSE3xc6NWGzjAAOQG-66" value="" style="shape=crossbar;whiteSpace=wrap;html=1;rounded=1;direction=south;shadow=0;strokeColor=default;fillColor=default;rotation=-90;" parent="WIyWlLk6GJQsqaUBKTNV-1" vertex="1">
          <mxGeometry x="659.75" y="626.25" width="20" height="277.5" as="geometry" />
        </mxCell>
        <mxCell id="aoZYSE3xc6NWGzjAAOQG-67" value="GRPH LP Rewards" style="text;html=1;strokeColor=none;fillColor=none;align=center;verticalAlign=middle;whiteSpace=wrap;rounded=0;shadow=0;rotation=0;" parent="WIyWlLk6GJQsqaUBKTNV-1" vertex="1">
          <mxGeometry x="598.5" y="730" width="142.5" height="30" as="geometry" />
        </mxCell>
        <mxCell id="vyJOtIpLA4B9oOSK_T18-20" value="" style="shape=table;startSize=0;container=1;collapsible=0;childLayout=tableLayout;fillColor=#f5f5f5;fontColor=#333333;strokeColor=#666666;" parent="WIyWlLk6GJQsqaUBKTNV-1" vertex="1">
          <mxGeometry x="530" y="830" width="81" height="40" as="geometry" />
        </mxCell>
        <mxCell id="vyJOtIpLA4B9oOSK_T18-21" value="" style="shape=partialRectangle;collapsible=0;dropTarget=0;pointerEvents=0;fillColor=none;top=0;left=0;bottom=0;right=0;points=[[0,0.5],[1,0.5]];portConstraint=eastwest;" parent="vyJOtIpLA4B9oOSK_T18-20" vertex="1">
          <mxGeometry width="81" height="40" as="geometry" />
        </mxCell>
        <mxCell id="vyJOtIpLA4B9oOSK_T18-22" value="&lt;span style=&quot;font-size: 10pt ; font-family: &amp;#34;arial&amp;#34; ; text-align: right&quot;&gt;34736.70%&lt;/span&gt;" style="shape=partialRectangle;html=1;whiteSpace=wrap;connectable=0;overflow=hidden;fillColor=none;top=0;left=0;bottom=0;right=0;pointerEvents=1;" parent="vyJOtIpLA4B9oOSK_T18-21" vertex="1">
          <mxGeometry width="81" height="40" as="geometry">
            <mxRectangle width="81" height="40" as="alternateBounds" />
          </mxGeometry>
        </mxCell>
        <mxCell id="vyJOtIpLA4B9oOSK_T18-23" value="" style="edgeStyle=orthogonalEdgeStyle;rounded=0;orthogonalLoop=1;jettySize=auto;html=1;exitX=0;exitY=0.5;exitDx=0;exitDy=0;entryX=1;entryY=0.5;entryDx=0;entryDy=0;strokeWidth=1;dashed=1;endArrow=none;" parent="WIyWlLk6GJQsqaUBKTNV-1" source="aoZYSE3xc6NWGzjAAOQG-52" target="vyJOtIpLA4B9oOSK_T18-20" edge="1">
          <mxGeometry relative="1" as="geometry">
            <mxPoint x="611" y="850" as="sourcePoint" />
            <mxPoint x="380" y="850" as="targetPoint" />
          </mxGeometry>
        </mxCell>
        <mxCell id="vyJOtIpLA4B9oOSK_T18-24" value="" style="shape=partialRectangle;html=1;whiteSpace=wrap;connectable=0;overflow=hidden;fillColor=none;top=0;left=0;bottom=0;right=0;pointerEvents=1;" parent="WIyWlLk6GJQsqaUBKTNV-1" vertex="1">
          <mxGeometry x="530" y="790" width="81" height="30" as="geometry">
            <mxRectangle width="81" height="40" as="alternateBounds" />
          </mxGeometry>
        </mxCell>
        <mxCell id="vyJOtIpLA4B9oOSK_T18-25" value="" style="shape=table;startSize=0;container=1;collapsible=0;childLayout=tableLayout;fillColor=#d5e8d4;strokeColor=#82b366;" parent="WIyWlLk6GJQsqaUBKTNV-1" vertex="1">
          <mxGeometry x="530" y="780" width="81" height="40" as="geometry" />
        </mxCell>
        <mxCell id="vyJOtIpLA4B9oOSK_T18-26" value="" style="shape=partialRectangle;collapsible=0;dropTarget=0;pointerEvents=0;fillColor=none;top=0;left=0;bottom=0;right=0;points=[[0,0.5],[1,0.5]];portConstraint=eastwest;" parent="vyJOtIpLA4B9oOSK_T18-25" vertex="1">
          <mxGeometry width="81" height="40" as="geometry" />
        </mxCell>
        <mxCell id="vyJOtIpLA4B9oOSK_T18-27" value="Launch APR" style="shape=partialRectangle;html=1;whiteSpace=wrap;connectable=0;overflow=hidden;fillColor=none;top=0;left=0;bottom=0;right=0;pointerEvents=1;" parent="vyJOtIpLA4B9oOSK_T18-26" vertex="1">
          <mxGeometry width="81" height="40" as="geometry">
            <mxRectangle width="81" height="40" as="alternateBounds" />
          </mxGeometry>
        </mxCell>
        <mxCell id="vyJOtIpLA4B9oOSK_T18-28" value="" style="shape=table;startSize=0;container=1;collapsible=0;childLayout=tableLayout;fillColor=#f5f5f5;fontColor=#333333;strokeColor=#666666;" parent="WIyWlLk6GJQsqaUBKTNV-1" vertex="1">
          <mxGeometry x="530" y="880" width="81" height="40" as="geometry" />
        </mxCell>
        <mxCell id="vyJOtIpLA4B9oOSK_T18-29" value="" style="shape=partialRectangle;collapsible=0;dropTarget=0;pointerEvents=0;fillColor=none;top=0;left=0;bottom=0;right=0;points=[[0,0.5],[1,0.5]];portConstraint=eastwest;" parent="vyJOtIpLA4B9oOSK_T18-28" vertex="1">
          <mxGeometry width="81" height="40" as="geometry" />
        </mxCell>
        <mxCell id="vyJOtIpLA4B9oOSK_T18-30" value="&lt;span style=&quot;font-size: 10pt ; font-family: &amp;#34;arial&amp;#34; ; text-align: right&quot;&gt;62500.00%&lt;/span&gt;" style="shape=partialRectangle;html=1;whiteSpace=wrap;connectable=0;overflow=hidden;fillColor=none;top=0;left=0;bottom=0;right=0;pointerEvents=1;" parent="vyJOtIpLA4B9oOSK_T18-29" vertex="1">
          <mxGeometry width="81" height="40" as="geometry">
            <mxRectangle width="81" height="40" as="alternateBounds" />
          </mxGeometry>
        </mxCell>
        <mxCell id="vyJOtIpLA4B9oOSK_T18-31" value="" style="edgeStyle=orthogonalEdgeStyle;rounded=0;orthogonalLoop=1;jettySize=auto;html=1;exitX=0;exitY=0.5;exitDx=0;exitDy=0;entryX=1;entryY=0.5;entryDx=0;entryDy=0;dashed=1;strokeWidth=1;endArrow=none;" parent="WIyWlLk6GJQsqaUBKTNV-1" source="aoZYSE3xc6NWGzjAAOQG-57" target="vyJOtIpLA4B9oOSK_T18-28" edge="1">
          <mxGeometry relative="1" as="geometry">
            <mxPoint x="611" y="900" as="sourcePoint" />
            <mxPoint x="380" y="900" as="targetPoint" />
          </mxGeometry>
        </mxCell>
        <mxCell id="vyJOtIpLA4B9oOSK_T18-32" value="" style="shape=partialRectangle;html=1;whiteSpace=wrap;connectable=0;overflow=hidden;fillColor=none;top=0;left=0;bottom=0;right=0;pointerEvents=1;" parent="WIyWlLk6GJQsqaUBKTNV-1" vertex="1">
          <mxGeometry x="530" y="930" width="81" height="40" as="geometry">
            <mxRectangle width="81" height="40" as="alternateBounds" />
          </mxGeometry>
        </mxCell>
        <mxCell id="vyJOtIpLA4B9oOSK_T18-33" value="" style="shape=table;startSize=0;container=1;collapsible=0;childLayout=tableLayout;fillColor=#f5f5f5;fontColor=#333333;strokeColor=#666666;" parent="WIyWlLk6GJQsqaUBKTNV-1" vertex="1">
          <mxGeometry x="530" y="930" width="81" height="40" as="geometry" />
        </mxCell>
        <mxCell id="vyJOtIpLA4B9oOSK_T18-34" value="" style="shape=partialRectangle;collapsible=0;dropTarget=0;pointerEvents=0;fillColor=none;top=0;left=0;bottom=0;right=0;points=[[0,0.5],[1,0.5]];portConstraint=eastwest;" parent="vyJOtIpLA4B9oOSK_T18-33" vertex="1">
          <mxGeometry width="81" height="40" as="geometry" />
        </mxCell>
        <mxCell id="vyJOtIpLA4B9oOSK_T18-35" value="&lt;span style=&quot;font-size: 10pt ; font-family: &amp;#34;arial&amp;#34; ; text-align: right&quot;&gt;25000%&lt;/span&gt;" style="shape=partialRectangle;html=1;whiteSpace=wrap;connectable=0;overflow=hidden;fillColor=none;top=0;left=0;bottom=0;right=0;pointerEvents=1;" parent="vyJOtIpLA4B9oOSK_T18-34" vertex="1">
          <mxGeometry width="81" height="40" as="geometry">
            <mxRectangle width="81" height="40" as="alternateBounds" />
          </mxGeometry>
        </mxCell>
        <mxCell id="f5wqm6YAVryBw6JpzlOn-8" value="" style="shape=image;verticalLabelPosition=bottom;labelBackgroundColor=default;verticalAlign=top;aspect=fixed;imageAspect=0;image=data:image/jpeg,/9j/4AAQSkZJRgABAQAAAQABAAD/2wCEAAUFBQUFBQUGBgUICAcICAsKCQkKCxEMDQwNDBEaEBMQEBMQGhcbFhUWGxcpIBwcICkvJyUnLzkzMzlHREddXX0BBQUFBQUFBQYGBQgIBwgICwoJCQoLEQwNDA0MERoQExAQExAaFxsWFRYbFykgHBwgKS8nJScvOTMzOUdER11dff/AABEIAGQAZAMBIgACEQEDEQH/xACZAAEAAgIDAQAAAAAAAAAAAAAABwgFBgECBAMQAAEEAQMBBgMGBgMBAAAAAAEAAgMEBQYREiEHEzFBUWEUMoEVIiMzcXJCUlNiobIWkbHBAQACAgMBAAAAAAAAAAAAAAAABgQFAQMHAhEAAgIBAwIFAgQFBQAAAAAAAQIDBAAFERIhQQYTMVFxIpEUMkKxFSMkUmE0gaGiwf/aAAwDAQACEQMRAD8AuWiIjDCOHJpHqERYIBBBwzrQna9jw9wEjDs4f/V2WMuxywTC1Edt/HbyK9NTIwvIEn3Hf4KoqmqpDO1C8/lzodkduiyr2IPvm94iVEiDdT6j2OepERX2aMIiIwwiIjDCIiMMIiIwz55Wm+3WcIp3RTN6xSNO3FwUe/8ANbmJjtMyeOdO+BjufcACU8fRp6ErYtYaywmi8U/IZSxxZ8sMLOss7/5GBV9xerr/AGi18xkJ6bKAZbENbuSfkDN9nu/jcPNK3iN7NFYtRq2jGY3VJkPVHQnuPcZf6PVW1vHYh3gY9JO6t/jJdxWtq+Yx32rg9snjuRZLXO0NiMjxDe82HL+130K71dV6VyUr4a+ahr22/mUbh+FsMPpwl2VV6eVzHZhqWxLFWM2Ot7GxVPySs9WH+dqmZmN0T2lUPicc+CbYffrTN+/AfQj5mfToqi+6eRG1isbWnuOUE8Z/mQg/p39hk+xpCU5yskrRo3VJQOSN85LwyfwMRmFoNiHnyDmn2HqVkqOo69lgDXNd7t8R+rSqwv7NM3p+V82Ayt6h6sYfiIHfqxfB+qdS6efCM7hmWYi/iLmPJieD/dE/ooVSzehdV0nVBMvatP8AQ3wOXT7HMjRI51PFvNY+jRbN9wOuW9imjmG7HgooO0pr+hmGPkqZDv2wv4TgtMVms7fbaaN3UKasddNwBp2+60HceBHqmnSvEAuT/g7ddq9sfoI6N8Yu2aTQAOrh4z6MufdERMmQsIiIwwumRvw42pNYkP3Yx19ST4Ae5XdRvrjJBssVUv2ihZ30v6kdP+gqrWtR/henT2AN5OixD3dugybp9Q3bcUPYndvgZEOusThtSzz5nPWrLDHHxYWTEMiYOvFjFGOF17JgHR0Hxvt4WI8IXFjI7MTD+zo9ZjPX58yLbubY4Wxu48zsyJngXvKjG3kI2wSQY6JzIC0tfO5v41j/AN7uP+0fUpc0rT5btOVNUle0ZDuUdvpj37g9jnUm02tVgSHgTY4clVOgjA7nLNuZjM5Qic5kVqpOwPYSN2uB8CPQqNdS6PoYCpNm8PcuUbcEkXB0Mu3ESSBhO/iAN1javaLiNKYWpi48Vemnpw7S98WQjn87ug5lY3VknaLmaUT7uIkp46x1jrxEDmPEF3Uvcq7SPD2vwXW8iVoaIlJ+t+kke/8AaN+pGLljW6daMpJLy94xs3X4zf4O13UmHyV2tfx8GRqRWJGMLT3NhrWO2G56teVJOK7UdE51rIbNv4KV/TucjGIwT6B53YVWChdiz0sNaw8QZcFsb2SEMFkjoC0u2DZT5tPRxUsYQYfvJcX8LHxduyarPHs/k3+djx4qZrlLT68Pm/gJBKv5zEeIXbufUZcz6Pot2jFb06SRZOAZ0U8lXN01J2U1chnRqnTuVfh85873taJK1nf+qz0f5rbtGakfLCyKzCa1qGR1eeuT+TOz54d/TzYfNpW06NFSbBR0u6AFM9zGB5R+LR+gWO1LouY2TlsXxdbMbY7EBPAWo2fKCfKVn8D/AKFaRp+o2qVO5WsecERXrSEASR7fob3GIwaCCezVnHEFtie2/Y5IMFmGZoLHj3B8VyCCNwVEuMzcjHRw2S4sJLA94LZGOHQteD4EeBCk/GEmsWk7NDyrjRfEUuo2jTnqeXKiNzO/6l7bZDuUTVAbnyVvykehGetERNeV+FAOuLJkOoJdz1c6MfQhin5Vx1tO+jjdTXGxl7qveSj94kAaT7BxBSd4tDyHRYVG/O4vT3Ixl8MskVuWZ/RAv75XnU18yT/Y8DvwoHB1xwPzzD+D9sfh+5eOiw1op75Z+QNoAR0MxBLT7hgBcf0WTpYdlfB4q7O3lNdknmJd5taQxu/+SvbYFf4SyLAf8PWxU9ufh8wbNOyuS33DAdlYpPCsKQx/lMpiZvchuJ+5G2dAtSyVdBt6gW/qLHLr9/8AgAZEsrX2mz7lz3SB3I9Sd3eJPurhdmcEHaHjtJ2rvJ9ajjBHbj8Oc8L+64fXbdfDVmDxdXT2KmwteKOlXI4GEdHRTAbPJ89/VS32T4qrjNEYkQNH4z7M7j7zTOdxTTIeI6fGcST62PLqd983V2Dw4rurHFUzCW7GIwMLSPcEKL+1PSWNOGOoKbGQ5DEiORjmdO8iY4AscpfUOdqWkdbZyBww+UfPQcAZcWS2Pq3zaenMexKgzRrIjKycgRtjL4bk8vWKRN9KqBxzeQkKV7qfkZldA34p5pgx47u1XZLH9Oqk5VS0XDr/AAF6vUfpu9wicXRvdC4cPbl4FpVosXbv2K7ZLuPNSXb8syB/16eCotAhm06KTTZUciJ2aGTYlWjY7jc9jkzxTp6Vb7SxWYZYnA2KSKx9h0GYPU+Crz132Y4gLTpIm7t8XdePVbJTg7iBjT5eK7EA7bhcqyj06CPUp74A8ySJY/sdycXWsSPBHCTuqMSP98IiKwzRhRVqHTrsrjO0ikxm8k1KZkA9XlvetUqr5trsjmsygfm8eXvxGygW6Ysz0JTt/TzF/uhX9zkqvZauJuPq6qPswOU21RRFLE6bia3ZsEAh+vBpWvY+mcja1JQaN3zaXjbGPV2/Mf5UwdouGdDBkoWt3EEgsRe7FEenbXwes8E8nZtzGvr7/wB8bnbf6pHpyWE0q6h/1NSSbcH++NvNzqk7x3vDlVQd080qfh1J/wDcwugu0qHBUzpzUgfLgpgWQWAOT6gf4sf6x+nm1XA7LLlc4I49lyKzHVlc+tPE8PjmrzHkx7SPqCq6W+xytkJMzfrXge8mMleltxYA7q5j3f6rJ9keYb2d525hcgHVsdcfvwmHWpY8OQP9OTwcujVrUWoU4LUB5RyKGHuPcH4zj0kTVrEkUo4uhKn/ADlvEXAIcAQdwVys57wiIjDCIiMMIiIwwiIjDNX1jhBkKYmih5SQscHD+eM+LVUXVmlcpjoKuSxDJJ/s+yZ2mNvKSKNwBJIHiGlqvEtJzGEnxF9mYx0ZLGP5yxN8vUt9ilTV6U9O4uqVU5xEqLkIG/JB05ge4GM2j6vJDXlosw2bYx8vTkOoGQdpnVlbP0w1lh1e26McmxuAd++IlYHVGqchiWCLVekIsxQ8IcpRd3Dx7PY7fu3/AF2U95Ts30Zqdjb8FM055fxG2aThCdz5lvykrGHs6ztRroo8/WvQEbGO7XLH8fRzmFwd9QsVaGoaNK0+kMlilMebVWfb17xsck6m+gawokEzVLQGzJKh2DdwCu+4+ds0vsi7U8NfvjBMuX6tcACpDlWNPX+nFOz/AEerIquNzsLgnfJLBDBSkf4itPvGT+x4W66bwPaZpkRV/tuhk6DOjYrheJGD0ZIzkUww3ln251rED91eMn/sm4xVkrPCSBJFIvZkcH99jksouITK6JhlY1jyPvNa7kAfY7DdcqXmrCIiMMIiIwwiIjDCIiMM8kUEVSwWwDhHNye5g+XkD4geW/mvWiLTAqorKoAAY7AdAM9uSSCTuSBhERbs8YRERhhERGGEREYZ/9k=;" vertex="1" parent="WIyWlLk6GJQsqaUBKTNV-1">
          <mxGeometry x="200" y="110" width="40" height="40" as="geometry" />
        </mxCell>
        <mxCell id="f5wqm6YAVryBw6JpzlOn-9" value="" style="shape=image;verticalLabelPosition=bottom;labelBackgroundColor=default;verticalAlign=top;aspect=fixed;imageAspect=0;image=data:image/jpeg,/9j/4AAQSkZJRgABAQAAAQABAAD/2wCEAAUFBQUFBQUGBgUICAcICAsKCQkKCxEMDQwNDBEaEBMQEBMQGhcbFhUWGxcpIBwcICkvJyUnLzkzMzlHREddXX0BBQUFBQUFBQYGBQgIBwgICwoJCQoLEQwNDA0MERoQExAQExAaFxsWFRYbFykgHBwgKS8nJScvOTMzOUdER11dff/AABEIAGQAZAMBIgACEQEDEQH/xACZAAEAAgIDAQAAAAAAAAAAAAAABwgFBgECBAMQAAEEAQMBBgMGBgMBAAAAAAEAAgMEBQYREiEHEzFBUWEUMoEVIiMzcXJCUlNiobIWkbHBAQACAgMBAAAAAAAAAAAAAAAABgQFAQMHAhEAAgIBAwIFAgQFBQAAAAAAAQIDBAAFERIhQQYTMVFxIpEUMkKxFSMkUmE0gaGiwf/aAAwDAQACEQMRAD8AuWiIjDCOHJpHqERYIBBBwzrQna9jw9wEjDs4f/V2WMuxywTC1Edt/HbyK9NTIwvIEn3Hf4KoqmqpDO1C8/lzodkduiyr2IPvm94iVEiDdT6j2OepERX2aMIiIwwiIjDCIiMMIiIwz55Wm+3WcIp3RTN6xSNO3FwUe/8ANbmJjtMyeOdO+BjufcACU8fRp6ErYtYaywmi8U/IZSxxZ8sMLOss7/5GBV9xerr/AGi18xkJ6bKAZbENbuSfkDN9nu/jcPNK3iN7NFYtRq2jGY3VJkPVHQnuPcZf6PVW1vHYh3gY9JO6t/jJdxWtq+Yx32rg9snjuRZLXO0NiMjxDe82HL+130K71dV6VyUr4a+ahr22/mUbh+FsMPpwl2VV6eVzHZhqWxLFWM2Ot7GxVPySs9WH+dqmZmN0T2lUPicc+CbYffrTN+/AfQj5mfToqi+6eRG1isbWnuOUE8Z/mQg/p39hk+xpCU5yskrRo3VJQOSN85LwyfwMRmFoNiHnyDmn2HqVkqOo69lgDXNd7t8R+rSqwv7NM3p+V82Ayt6h6sYfiIHfqxfB+qdS6efCM7hmWYi/iLmPJieD/dE/ooVSzehdV0nVBMvatP8AQ3wOXT7HMjRI51PFvNY+jRbN9wOuW9imjmG7HgooO0pr+hmGPkqZDv2wv4TgtMVms7fbaaN3UKasddNwBp2+60HceBHqmnSvEAuT/g7ddq9sfoI6N8Yu2aTQAOrh4z6MufdERMmQsIiIwwumRvw42pNYkP3Yx19ST4Ae5XdRvrjJBssVUv2ihZ30v6kdP+gqrWtR/henT2AN5OixD3dugybp9Q3bcUPYndvgZEOusThtSzz5nPWrLDHHxYWTEMiYOvFjFGOF17JgHR0Hxvt4WI8IXFjI7MTD+zo9ZjPX58yLbubY4Wxu48zsyJngXvKjG3kI2wSQY6JzIC0tfO5v41j/AN7uP+0fUpc0rT5btOVNUle0ZDuUdvpj37g9jnUm02tVgSHgTY4clVOgjA7nLNuZjM5Qic5kVqpOwPYSN2uB8CPQqNdS6PoYCpNm8PcuUbcEkXB0Mu3ESSBhO/iAN1javaLiNKYWpi48Vemnpw7S98WQjn87ug5lY3VknaLmaUT7uIkp46x1jrxEDmPEF3Uvcq7SPD2vwXW8iVoaIlJ+t+kke/8AaN+pGLljW6daMpJLy94xs3X4zf4O13UmHyV2tfx8GRqRWJGMLT3NhrWO2G56teVJOK7UdE51rIbNv4KV/TucjGIwT6B53YVWChdiz0sNaw8QZcFsb2SEMFkjoC0u2DZT5tPRxUsYQYfvJcX8LHxduyarPHs/k3+djx4qZrlLT68Pm/gJBKv5zEeIXbufUZcz6Pot2jFb06SRZOAZ0U8lXN01J2U1chnRqnTuVfh85873taJK1nf+qz0f5rbtGakfLCyKzCa1qGR1eeuT+TOz54d/TzYfNpW06NFSbBR0u6AFM9zGB5R+LR+gWO1LouY2TlsXxdbMbY7EBPAWo2fKCfKVn8D/AKFaRp+o2qVO5WsecERXrSEASR7fob3GIwaCCezVnHEFtie2/Y5IMFmGZoLHj3B8VyCCNwVEuMzcjHRw2S4sJLA94LZGOHQteD4EeBCk/GEmsWk7NDyrjRfEUuo2jTnqeXKiNzO/6l7bZDuUTVAbnyVvykehGetERNeV+FAOuLJkOoJdz1c6MfQhin5Vx1tO+jjdTXGxl7qveSj94kAaT7BxBSd4tDyHRYVG/O4vT3Ixl8MskVuWZ/RAv75XnU18yT/Y8DvwoHB1xwPzzD+D9sfh+5eOiw1op75Z+QNoAR0MxBLT7hgBcf0WTpYdlfB4q7O3lNdknmJd5taQxu/+SvbYFf4SyLAf8PWxU9ufh8wbNOyuS33DAdlYpPCsKQx/lMpiZvchuJ+5G2dAtSyVdBt6gW/qLHLr9/8AgAZEsrX2mz7lz3SB3I9Sd3eJPurhdmcEHaHjtJ2rvJ9ajjBHbj8Oc8L+64fXbdfDVmDxdXT2KmwteKOlXI4GEdHRTAbPJ89/VS32T4qrjNEYkQNH4z7M7j7zTOdxTTIeI6fGcST62PLqd983V2Dw4rurHFUzCW7GIwMLSPcEKL+1PSWNOGOoKbGQ5DEiORjmdO8iY4AscpfUOdqWkdbZyBww+UfPQcAZcWS2Pq3zaenMexKgzRrIjKycgRtjL4bk8vWKRN9KqBxzeQkKV7qfkZldA34p5pgx47u1XZLH9Oqk5VS0XDr/AAF6vUfpu9wicXRvdC4cPbl4FpVosXbv2K7ZLuPNSXb8syB/16eCotAhm06KTTZUciJ2aGTYlWjY7jc9jkzxTp6Vb7SxWYZYnA2KSKx9h0GYPU+Crz132Y4gLTpIm7t8XdePVbJTg7iBjT5eK7EA7bhcqyj06CPUp74A8ySJY/sdycXWsSPBHCTuqMSP98IiKwzRhRVqHTrsrjO0ikxm8k1KZkA9XlvetUqr5trsjmsygfm8eXvxGygW6Ysz0JTt/TzF/uhX9zkqvZauJuPq6qPswOU21RRFLE6bia3ZsEAh+vBpWvY+mcja1JQaN3zaXjbGPV2/Mf5UwdouGdDBkoWt3EEgsRe7FEenbXwes8E8nZtzGvr7/wB8bnbf6pHpyWE0q6h/1NSSbcH++NvNzqk7x3vDlVQd080qfh1J/wDcwugu0qHBUzpzUgfLgpgWQWAOT6gf4sf6x+nm1XA7LLlc4I49lyKzHVlc+tPE8PjmrzHkx7SPqCq6W+xytkJMzfrXge8mMleltxYA7q5j3f6rJ9keYb2d525hcgHVsdcfvwmHWpY8OQP9OTwcujVrUWoU4LUB5RyKGHuPcH4zj0kTVrEkUo4uhKn/ADlvEXAIcAQdwVys57wiIjDCIiMMIiIwwiIjDNX1jhBkKYmih5SQscHD+eM+LVUXVmlcpjoKuSxDJJ/s+yZ2mNvKSKNwBJIHiGlqvEtJzGEnxF9mYx0ZLGP5yxN8vUt9ilTV6U9O4uqVU5xEqLkIG/JB05ge4GM2j6vJDXlosw2bYx8vTkOoGQdpnVlbP0w1lh1e26McmxuAd++IlYHVGqchiWCLVekIsxQ8IcpRd3Dx7PY7fu3/AF2U95Ts30Zqdjb8FM055fxG2aThCdz5lvykrGHs6ztRroo8/WvQEbGO7XLH8fRzmFwd9QsVaGoaNK0+kMlilMebVWfb17xsck6m+gawokEzVLQGzJKh2DdwCu+4+ds0vsi7U8NfvjBMuX6tcACpDlWNPX+nFOz/AEerIquNzsLgnfJLBDBSkf4itPvGT+x4W66bwPaZpkRV/tuhk6DOjYrheJGD0ZIzkUww3ln251rED91eMn/sm4xVkrPCSBJFIvZkcH99jksouITK6JhlY1jyPvNa7kAfY7DdcqXmrCIiMMIiIwwiIjDCIiMM8kUEVSwWwDhHNye5g+XkD4geW/mvWiLTAqorKoAAY7AdAM9uSSCTuSBhERbs8YRERhhERGGEREYZ/9k=;" vertex="1" parent="WIyWlLk6GJQsqaUBKTNV-1">
          <mxGeometry x="510" y="110" width="40" height="40" as="geometry" />
        </mxCell>
        <mxCell id="f5wqm6YAVryBw6JpzlOn-10" value="" style="shape=image;verticalLabelPosition=bottom;labelBackgroundColor=default;verticalAlign=top;aspect=fixed;imageAspect=0;image=data:image/jpeg,/9j/4AAQSkZJRgABAQAAAQABAAD/2wCEAAUFBQUFBQUGBgUICAcICAsKCQkKCxEMDQwNDBEaEBMQEBMQGhcbFhUWGxcpIBwcICkvJyUnLzkzMzlHREddXX0BBQUFBQUFBQYGBQgIBwgICwoJCQoLEQwNDA0MERoQExAQExAaFxsWFRYbFykgHBwgKS8nJScvOTMzOUdER11dff/AABEIAGQAZAMBIgACEQEDEQH/xACZAAEAAgIDAQAAAAAAAAAAAAAABwgFBgECBAMQAAEEAQMBBgMGBgMBAAAAAAEAAgMEBQYREiEHEzFBUWEUMoEVIiMzcXJCUlNiobIWkbHBAQACAgMBAAAAAAAAAAAAAAAABgQFAQMHAhEAAgIBAwIFAgQFBQAAAAAAAQIDBAAFERIhQQYTMVFxIpEUMkKxFSMkUmE0gaGiwf/aAAwDAQACEQMRAD8AuWiIjDCOHJpHqERYIBBBwzrQna9jw9wEjDs4f/V2WMuxywTC1Edt/HbyK9NTIwvIEn3Hf4KoqmqpDO1C8/lzodkduiyr2IPvm94iVEiDdT6j2OepERX2aMIiIwwiIjDCIiMMIiIwz55Wm+3WcIp3RTN6xSNO3FwUe/8ANbmJjtMyeOdO+BjufcACU8fRp6ErYtYaywmi8U/IZSxxZ8sMLOss7/5GBV9xerr/AGi18xkJ6bKAZbENbuSfkDN9nu/jcPNK3iN7NFYtRq2jGY3VJkPVHQnuPcZf6PVW1vHYh3gY9JO6t/jJdxWtq+Yx32rg9snjuRZLXO0NiMjxDe82HL+130K71dV6VyUr4a+ahr22/mUbh+FsMPpwl2VV6eVzHZhqWxLFWM2Ot7GxVPySs9WH+dqmZmN0T2lUPicc+CbYffrTN+/AfQj5mfToqi+6eRG1isbWnuOUE8Z/mQg/p39hk+xpCU5yskrRo3VJQOSN85LwyfwMRmFoNiHnyDmn2HqVkqOo69lgDXNd7t8R+rSqwv7NM3p+V82Ayt6h6sYfiIHfqxfB+qdS6efCM7hmWYi/iLmPJieD/dE/ooVSzehdV0nVBMvatP8AQ3wOXT7HMjRI51PFvNY+jRbN9wOuW9imjmG7HgooO0pr+hmGPkqZDv2wv4TgtMVms7fbaaN3UKasddNwBp2+60HceBHqmnSvEAuT/g7ddq9sfoI6N8Yu2aTQAOrh4z6MufdERMmQsIiIwwumRvw42pNYkP3Yx19ST4Ae5XdRvrjJBssVUv2ihZ30v6kdP+gqrWtR/henT2AN5OixD3dugybp9Q3bcUPYndvgZEOusThtSzz5nPWrLDHHxYWTEMiYOvFjFGOF17JgHR0Hxvt4WI8IXFjI7MTD+zo9ZjPX58yLbubY4Wxu48zsyJngXvKjG3kI2wSQY6JzIC0tfO5v41j/AN7uP+0fUpc0rT5btOVNUle0ZDuUdvpj37g9jnUm02tVgSHgTY4clVOgjA7nLNuZjM5Qic5kVqpOwPYSN2uB8CPQqNdS6PoYCpNm8PcuUbcEkXB0Mu3ESSBhO/iAN1javaLiNKYWpi48Vemnpw7S98WQjn87ug5lY3VknaLmaUT7uIkp46x1jrxEDmPEF3Uvcq7SPD2vwXW8iVoaIlJ+t+kke/8AaN+pGLljW6daMpJLy94xs3X4zf4O13UmHyV2tfx8GRqRWJGMLT3NhrWO2G56teVJOK7UdE51rIbNv4KV/TucjGIwT6B53YVWChdiz0sNaw8QZcFsb2SEMFkjoC0u2DZT5tPRxUsYQYfvJcX8LHxduyarPHs/k3+djx4qZrlLT68Pm/gJBKv5zEeIXbufUZcz6Pot2jFb06SRZOAZ0U8lXN01J2U1chnRqnTuVfh85873taJK1nf+qz0f5rbtGakfLCyKzCa1qGR1eeuT+TOz54d/TzYfNpW06NFSbBR0u6AFM9zGB5R+LR+gWO1LouY2TlsXxdbMbY7EBPAWo2fKCfKVn8D/AKFaRp+o2qVO5WsecERXrSEASR7fob3GIwaCCezVnHEFtie2/Y5IMFmGZoLHj3B8VyCCNwVEuMzcjHRw2S4sJLA94LZGOHQteD4EeBCk/GEmsWk7NDyrjRfEUuo2jTnqeXKiNzO/6l7bZDuUTVAbnyVvykehGetERNeV+FAOuLJkOoJdz1c6MfQhin5Vx1tO+jjdTXGxl7qveSj94kAaT7BxBSd4tDyHRYVG/O4vT3Ixl8MskVuWZ/RAv75XnU18yT/Y8DvwoHB1xwPzzD+D9sfh+5eOiw1op75Z+QNoAR0MxBLT7hgBcf0WTpYdlfB4q7O3lNdknmJd5taQxu/+SvbYFf4SyLAf8PWxU9ufh8wbNOyuS33DAdlYpPCsKQx/lMpiZvchuJ+5G2dAtSyVdBt6gW/qLHLr9/8AgAZEsrX2mz7lz3SB3I9Sd3eJPurhdmcEHaHjtJ2rvJ9ajjBHbj8Oc8L+64fXbdfDVmDxdXT2KmwteKOlXI4GEdHRTAbPJ89/VS32T4qrjNEYkQNH4z7M7j7zTOdxTTIeI6fGcST62PLqd983V2Dw4rurHFUzCW7GIwMLSPcEKL+1PSWNOGOoKbGQ5DEiORjmdO8iY4AscpfUOdqWkdbZyBww+UfPQcAZcWS2Pq3zaenMexKgzRrIjKycgRtjL4bk8vWKRN9KqBxzeQkKV7qfkZldA34p5pgx47u1XZLH9Oqk5VS0XDr/AAF6vUfpu9wicXRvdC4cPbl4FpVosXbv2K7ZLuPNSXb8syB/16eCotAhm06KTTZUciJ2aGTYlWjY7jc9jkzxTp6Vb7SxWYZYnA2KSKx9h0GYPU+Crz132Y4gLTpIm7t8XdePVbJTg7iBjT5eK7EA7bhcqyj06CPUp74A8ySJY/sdycXWsSPBHCTuqMSP98IiKwzRhRVqHTrsrjO0ikxm8k1KZkA9XlvetUqr5trsjmsygfm8eXvxGygW6Ysz0JTt/TzF/uhX9zkqvZauJuPq6qPswOU21RRFLE6bia3ZsEAh+vBpWvY+mcja1JQaN3zaXjbGPV2/Mf5UwdouGdDBkoWt3EEgsRe7FEenbXwes8E8nZtzGvr7/wB8bnbf6pHpyWE0q6h/1NSSbcH++NvNzqk7x3vDlVQd080qfh1J/wDcwugu0qHBUzpzUgfLgpgWQWAOT6gf4sf6x+nm1XA7LLlc4I49lyKzHVlc+tPE8PjmrzHkx7SPqCq6W+xytkJMzfrXge8mMleltxYA7q5j3f6rJ9keYb2d525hcgHVsdcfvwmHWpY8OQP9OTwcujVrUWoU4LUB5RyKGHuPcH4zj0kTVrEkUo4uhKn/ADlvEXAIcAQdwVys57wiIjDCIiMMIiIwwiIjDNX1jhBkKYmih5SQscHD+eM+LVUXVmlcpjoKuSxDJJ/s+yZ2mNvKSKNwBJIHiGlqvEtJzGEnxF9mYx0ZLGP5yxN8vUt9ilTV6U9O4uqVU5xEqLkIG/JB05ge4GM2j6vJDXlosw2bYx8vTkOoGQdpnVlbP0w1lh1e26McmxuAd++IlYHVGqchiWCLVekIsxQ8IcpRd3Dx7PY7fu3/AF2U95Ts30Zqdjb8FM055fxG2aThCdz5lvykrGHs6ztRroo8/WvQEbGO7XLH8fRzmFwd9QsVaGoaNK0+kMlilMebVWfb17xsck6m+gawokEzVLQGzJKh2DdwCu+4+ds0vsi7U8NfvjBMuX6tcACpDlWNPX+nFOz/AEerIquNzsLgnfJLBDBSkf4itPvGT+x4W66bwPaZpkRV/tuhk6DOjYrheJGD0ZIzkUww3ln251rED91eMn/sm4xVkrPCSBJFIvZkcH99jksouITK6JhlY1jyPvNa7kAfY7DdcqXmrCIiMMIiIwwiIjDCIiMM8kUEVSwWwDhHNye5g+XkD4geW/mvWiLTAqorKoAAY7AdAM9uSSCTuSBhERbs8YRERhhERGGEREYZ/9k=;" vertex="1" parent="WIyWlLk6GJQsqaUBKTNV-1">
          <mxGeometry x="60" y="930" width="40" height="40" as="geometry" />
        </mxCell>
        <mxCell id="f5wqm6YAVryBw6JpzlOn-12" value="Swap ZIL for&lt;br&gt;10,000 zUSDT" style="rounded=1;whiteSpace=wrap;html=1;verticalAlign=middle;" vertex="1" parent="WIyWlLk6GJQsqaUBKTNV-1">
          <mxGeometry x="140" y="626.25" width="120" height="60" as="geometry" />
        </mxCell>
      </root>
    </mxGraphModel>
  </diagram>
</mxfile>
